<svg width="206" height="246" viewBox="0 0 206 246" fill="none" xmlns="http://www.w3.org/2000/svg" style="">
<path d="M103.401 3V82.8828M53.001 162.766C12.6813 162.766 2.868 190.879 3.00133 204.936C4.86799 217.849 17.4812 243.54 53.001 242.991C88.5208 242.443 101.401 217.392 103.401 204.936V162.766M53.001 162.766H103.401M53.001 162.766C36.3344 162.651 3.00132 153.783 3.00132 119.224C3.00132 87.34 53.001 82.883 53.001 82.883M103.401 162.766V82.8828M53.001 82.883C53.001 82.883 86.6008 82.8828 103.401 82.8828M53.001 82.883C40.2011 82.883 3.00132 73.3518 3.00132 40.7129C3.00132 12.5998 36.6011 3 53.001 3H156.2C171.8 4.14279 203 13.2853 203 40.7129C203 74.9975 164.2 82.8828 156.2 82.8828C149.8 82.8828 118.334 82.8828 103.401 82.8828" stroke="white" stroke-width="5" class="AKGhOkwB_0"></path>
<path d="M200.5 123.339C200.5 143.832 179.754 161.294 153 161.294C126.246 161.294 105.5 143.832 105.5 123.339C105.5 102.845 126.246 85.3831 153 85.3831C179.754 85.3831 200.5 102.845 200.5 123.339Z" stroke="white" stroke-width="5" class="AKGhOkwB_1"></path>
<style data-made-with="vivus-instant">.AKGhOkwB_0{stroke-dasharray:1089 1091;stroke-dashoffset:1090;animation:AKGhOkwB_draw 2000ms linear 0ms forwards;}.AKGhOkwB_1{stroke-dasharray:270 272;stroke-dashoffset:271;animation:AKGhOkwB_draw 2000ms linear 1000ms forwards;}@keyframes AKGhOkwB_draw{100%{stroke-dashoffset:0;}}@keyframes AKGhOkwB_fade{0%{stroke-opacity:1;}94.44444444444444%{stroke-opacity:1;}100%{stroke-opacity:0;}}</style></svg>
