<svg width="343" height="343" viewBox="0 0 343 343" fill="none" xmlns="http://www.w3.org/2000/svg" style="">
<path stroke="white" stroke-width="2" d="M1,171.5A170.5,170.5 0,1,1 342,171.5A170.5,170.5 0,1,1 1,171.5" class="GWVBVMml_0"></path>
<path stroke="white" stroke-width="2" d="M20.05600000000001,171.5A151.444,151.444 0,1,1 322.94399999999996,171.5A151.444,151.444 0,1,1 20.05600000000001,171.5" class="GWVBVMml_1"></path>
<path stroke="white" stroke-width="2" d="M81,167A89,89 0,1,1 259,167A89,89 0,1,1 81,167" class="GWVBVMml_2"></path>
<path d="M172 1L172 78" stroke="white" stroke-width="2" class="GWVBVMml_3"></path>
<path d="M172 256L172 341" stroke="white" stroke-width="2" class="GWVBVMml_4"></path>
<path d="M319 257L246 214" stroke="white" stroke-width="2" class="GWVBVMml_5"></path>
<path d="M319 86L249 126" stroke="white" stroke-width="2" class="GWVBVMml_6"></path>
<path d="M91 126L24 86" stroke="white" stroke-width="2" class="GWVBVMml_7"></path>
<path d="M95 216L24 256" stroke="white" stroke-width="2" class="GWVBVMml_8"></path>
<path d="M54.0641 154V167.314M46.0002 180.628C39.549 180.628 37.9789 185.313 38.0002 187.656C38.2989 189.808 40.317 194.09 46.0002 193.999C51.6833 193.907 53.7441 189.732 54.0641 187.656V180.628M46.0002 180.628H54.0641M46.0002 180.628C43.3335 180.609 38.0002 179.131 38.0002 173.371C38.0002 168.057 46.0002 167.314 46.0002 167.314M54.0641 180.628V167.314M46.0002 167.314C46.0002 167.314 51.3761 167.314 54.0641 167.314M46.0002 167.314C43.9522 167.314 38.0002 165.725 38.0002 160.285C38.0002 155.6 43.3762 154 46.0002 154H62.512C65.008 154.19 70 155.714 70 160.285C70 166 63.792 167.314 62.512 167.314C61.4881 167.314 56.4534 167.314 54.0641 167.314" stroke="white" stroke-width="2" class="GWVBVMml_9"></path>
<path d="M68.9999 174.056C68.9999 177.074 66.033 179.799 61.9999 179.799C57.9669 179.799 55 177.074 55 174.056C55 171.038 57.9669 168.314 61.9999 168.314C66.033 168.314 68.9999 171.038 68.9999 174.056Z" stroke="white" stroke-width="2" class="GWVBVMml_10"></path>
<path stroke="white" stroke-width="2" d="M88,269A19,19 0,1,1 126,269A19,19 0,1,1 88,269" class="GWVBVMml_11"></path>
<path d="M89.3999 259.88H98.0399" stroke="white" stroke-width="2" class="GWVBVMml_12"></path>
<path d="M92.9199 259.88L100.076 286.28L108.04 265.8" stroke="white" stroke-width="2" class="GWVBVMml_13"></path>
<path d="M101.8 259.88H111.56" stroke="white" stroke-width="2" class="GWVBVMml_14"></path>
<path d="M106.2 259.735L114.2 286.215L120.733 267.655M120.733 267.655L121.24 266.215C121.533 265.255 122.872 262.423 122.68 260.055C122.44 257.095 120.852 255.998 120.44 255.655C119.96 255.255 118.44 254.535 117.32 255.175C116.2 255.815 115.72 258.135 115.8 258.855C115.88 259.575 116.597 261.652 117.72 262.775C118.68 263.735 120.049 266.241 120.733 267.655Z" stroke="white" stroke-width="2" class="GWVBVMml_15"></path>
<path d="M219.086 287.893L216 252H251L247.914 287.893L233.459 292L219.086 287.893Z" stroke="white" stroke-width="2" class="GWVBVMml_16"></path>
<path d="M230.374 259.474V281.651L221.685 279.269" stroke="white" stroke-width="2" class="GWVBVMml_17"></path>
<path d="M245.478 261.528L236.951 261.363V272.452L243.123 271.466L242.149 280.501L234.921 282.39" stroke="white" stroke-width="2" class="GWVBVMml_18"></path>
<path width="38" height="38" stroke="white" stroke-width="2" d="M 94,47 L 124,47 A 4,4,0,0,1,128,51 L 128,81 A 4,4,0,0,1,124,85 L 94,85 A 4,4,0,0,1,90,81 L 90,51 A 4,4,0,0,1,94,47" class="GWVBVMml_19"></path>
<path d="M97.1602 56.2401L108.36 74.1601" stroke="white" stroke-width="2" class="GWVBVMml_20"></path>
<path d="M96.8398 74.1598L108.28 56.3198" stroke="white" stroke-width="2" class="GWVBVMml_21"></path>
<path d="M121.48 54.88V62M121.48 62V68.8352C121.48 71.0072 120.082 73.0727 117.913 73.19C117.792 73.1965 117.674 73.2 117.56 73.2C115.88 73.2 112.68 71.92 112.68 67.68C112.68 63.44 114.6 62 121.48 62Z" stroke="white" stroke-width="2" class="GWVBVMml_22"></path>
<path d="M279.93 161.68H299.11L297.29 179.972L290.43 182.32L283.64 179.972L283.08 175.06M273 152L276.15 187.872L290.43 192L304.85 188.014L308 152H273Z" stroke="white" stroke-width="2" class="GWVBVMml_23"></path>
<path d="M298.2 170.363H282.94" stroke="white" stroke-width="2" class="GWVBVMml_24"></path>
<path d="M218.22 83.0142L215 47H250L246.78 83.0142L232.43 87L218.22 83.0142Z" stroke="white" stroke-width="2" class="GWVBVMml_25"></path>
<path d="M243.14 56.8932H224.38L225.5 65.5765H240.34L239.22 75.2562L232.36 77.1779L225.85 75.2562L225.15 70.0604" stroke="white" stroke-width="2" class="GWVBVMml_26"></path>
<path d="M100.938 30.7937L97.4048 24.6742L99.7736 23.3065C100.563 22.8507 101.923 23.3818 102.265 23.974L104.088 27.1325C104.635 28.08 103.795 29.0563 103.307 29.4261L100.938 30.7937Z" stroke="white" stroke-width="0.5" class="GWVBVMml_27"></path>
<path d="M91.3689 27.896L99.6702 31.789" stroke="white" stroke-width="0.5" class="GWVBVMml_28"></path>
<path d="M95.7117 25.3885L94.9324 34.5242" stroke="white" stroke-width="0.5" class="GWVBVMml_29"></path>
<path d="M86.8531 36.0304L89.6167 34.4348C89.3128 33.9084 88.4286 33.0152 87.3231 33.6534C85.9413 34.4512 86.4277 35.7496 86.7696 36.3418C87.1116 36.934 87.9094 38.3159 89.4886 37.4041C90.2782 36.9482 90.6425 36.2115 90.3006 35.6193" stroke="white" stroke-width="0.5" class="GWVBVMml_30"></path>
<path d="M85.7867 37.8306L85.2739 36.9423C84.8333 36.1791 83.8574 35.9176 83.0942 36.3582C82.2221 36.8618 81.9232 37.977 82.4268 38.8492L82.8257 39.5401C83.2978 40.3578 84.3433 40.638 85.161 40.1659C85.9787 39.6938 86.2588 38.6482 85.7867 37.8306Z" stroke="white" stroke-width="0.5" class="GWVBVMml_31"></path>
<path d="M79.8054 34.309L83.6804 41.0207" stroke="white" stroke-width="0.5" class="GWVBVMml_32"></path>
<path d="M77.974 42.078L77.4611 41.1897C77.0205 40.4265 77.282 39.4507 78.0452 39.0101C78.9173 38.5065 80.0326 38.8053 80.5362 39.6775L80.9351 40.3684C81.4071 41.1861 81.127 42.2317 80.3093 42.7038C79.4916 43.1758 78.4461 42.8957 77.974 42.078Z" stroke="white" stroke-width="0.5" class="GWVBVMml_33"></path>
<path d="M73.745 44.7828L73.2321 43.8945C72.7915 43.1314 73.053 42.1555 73.8162 41.7149C74.6883 41.2113 75.8036 41.5102 76.3072 42.3824L76.7061 43.0733C77.1781 43.8909 76.898 44.9365 76.0803 45.4086C75.2626 45.8807 74.2171 45.6005 73.745 44.7828Z" stroke="white" stroke-width="0.5" class="GWVBVMml_34"></path>
<path d="M73.6858 37.842L77.5608 44.5538" stroke="white" stroke-width="0.5" class="GWVBVMml_35"></path>
<path d="M68.8751 49.5685L67.4829 41.6865L73.8102 46.7193" stroke="white" stroke-width="0.5" class="GWVBVMml_36"></path>
<path d="M68.4109 46.9412L70.5823 45.6875" stroke="white" stroke-width="0.5" class="GWVBVMml_37"></path>
<path d="M9.66675 158.333C9.33341 157.778 8.66675 156.4 8.66675 155.333C8.66675 154.267 9.33341 154 9.66675 154H15.0001" stroke="white" stroke-width="0.5" class="GWVBVMml_38"></path>
<path d="M10.9475 154.137C10.9475 154.137 11.8364 157.915 11.9475 158.137C12.0586 158.359 12.4808 158.804 13.2808 158.804V158.804C14.3102 158.804 14.6663 157.606 14.637 156.577C14.6326 156.423 14.6254 156.273 14.6142 156.137C14.5493 155.348 14.2808 154.137 14.2808 154.137" stroke="white" stroke-width="0.5" class="GWVBVMml_39"></path>
<path d="M8.33325 169H14.6666" stroke="white" stroke-width="0.5" class="GWVBVMml_40"></path>
<path d="M9.99992 169C9.44436 168.667 8.33325 167.8 8.33325 167C8.33325 166 8.99992 165 9.99992 165C10.7999 165 13.4444 165 14.6666 165" stroke="white" stroke-width="0.5" class="GWVBVMml_41"></path>
<path d="M9.99992 165C9.44436 164.667 8.33325 163.8 8.33325 163C8.33325 162 8.99992 161 9.99992 161C10.7999 161 13.4444 161 14.6666 161" stroke="white" stroke-width="0.5" class="GWVBVMml_42"></path>
<path d="M8.33325 171.333H16.3333C16.8888 171.444 17.9999 172.067 17.9999 173.667C17.9999 175.667 16.6666 175.667 16.3333 175.667" stroke="white" stroke-width="0.5" class="GWVBVMml_43"></path>
<path transform="rotate(-90 11.3334 173.667)" stroke="white" stroke-width="0.5" d="M8.91673,173.667A2.41667,2.41667 0,1,1 13.75007,173.667A2.41667,2.41667 0,1,1 8.91673,173.667" class="GWVBVMml_44"></path>
<path d="M4 179.667L5.33333 179.667" stroke="white" stroke-width="0.5" class="GWVBVMml_45"></path>
<path d="M8.66675 181.667V179.667H14.6667" stroke="white" stroke-width="0.5" class="GWVBVMml_46"></path>
<path d="M4 183V188.667H14.6667" stroke="white" stroke-width="0.5" class="GWVBVMml_47"></path>
<path d="M9 188.667V184" stroke="white" stroke-width="0.5" class="GWVBVMml_48"></path>
<path d="M121.006 327.184C122.065 325.35 118.091 323.056 117.032 324.89C115.974 326.724 120.3 328.407 119.241 330.24C118.888 330.852 117.748 331.416 116.525 330.71C115.302 330.004 114.256 328.993 114.962 327.77" stroke="white" stroke-width="0.5" class="GWVBVMml_49"></path>
<path d="M114.804 323.807C115.863 321.973 111.89 319.679 110.831 321.513C109.772 323.347 114.099 325.03 113.04 326.864C112.687 327.475 111.546 328.039 110.323 327.333C109.101 326.627 108.055 325.616 108.761 324.393" stroke="white" stroke-width="0.5" class="GWVBVMml_50"></path>
<path d="M103.401 318.854L107.68 321.324C108.151 320.509 108.664 318.632 106.952 317.644C104.813 316.408 103.448 318.066 102.919 318.983C102.389 319.9 101.154 322.039 103.599 323.451C104.822 324.157 106.092 324.075 106.621 323.158" stroke="white" stroke-width="0.5" class="GWVBVMml_51"></path>
<path d="M98.3938 312.702L95.0409 318.51" stroke="white" stroke-width="0.5" class="GWVBVMml_52"></path>
<path d="M96.8056 315.453C97.335 314.536 98.8217 312.949 100.533 313.938C102.245 314.926 101.838 315.913 101.485 316.525" stroke="white" stroke-width="0.5" class="GWVBVMml_53"></path>
<path d="M87.0939 313.921L89.741 309.337M89.741 309.337L92.741 304.141L97.0201 306.611C97.5726 307.066 98.4305 308.403 97.4423 310.115C96.4541 311.827 94.3416 311.721 93.4088 311.454L89.741 309.337Z" stroke="white" stroke-width="0.5" class="GWVBVMml_54"></path>
<path d="M81.0817 307.394L81.8758 306.018C82.558 304.837 84.069 304.432 85.2507 305.114C86.6011 305.894 87.0638 307.621 86.2842 308.971L85.6665 310.041C84.9355 311.307 83.3166 311.741 82.0506 311.01C80.7845 310.279 80.3507 308.66 81.0817 307.394Z" stroke="white" stroke-width="0.5" class="GWVBVMml_55"></path>
<path d="M90.3428 301.941L84.3428 312.333" stroke="white" stroke-width="0.5" class="GWVBVMml_56"></path>
<path d="M76.9978 300.349L73.6449 306.157" stroke="white" stroke-width="0.5" class="GWVBVMml_57"></path>
<path d="M75.4096 303.1C75.939 302.183 77.4257 300.597 79.1374 301.585C80.8491 302.573 80.4419 303.561 80.089 304.172" stroke="white" stroke-width="0.5" class="GWVBVMml_58"></path>
<path d="M68.2443 299.982L69.0384 298.607C69.7206 297.425 71.2316 297.02 72.4133 297.702C73.7637 298.482 74.2264 300.209 73.4468 301.559L72.8291 302.629C72.0981 303.895 70.4792 304.329 69.2132 303.598C67.9471 302.867 67.5133 301.248 68.2443 299.982Z" stroke="white" stroke-width="0.5" class="GWVBVMml_59"></path>
<path d="M60.8235 285.306L57.7982 296.193L64.4314 291.057L63.6056 299.546L71.5214 291.482" stroke="white" stroke-width="0.5" class="GWVBVMml_60"></path>
<path d="M277.83 292.631L280.71 290.968" stroke="white" stroke-width="0.5" class="GWVBVMml_61"></path>
<path d="M278.192 289.629L281.82 295.913C281.921 296.087 282.227 296.376 282.646 296.134C283.065 295.892 283.693 295.53 283.955 295.378" stroke="white" stroke-width="0.5" class="GWVBVMml_62"></path>
<path d="M272.594 295.654L276.978 303.247" stroke="white" stroke-width="0.5" class="GWVBVMml_63"></path>
<path d="M274.427 294.596C272.96 295.442 273.4 297.05 273.803 297.749C274.22 298.672 275.472 300.276 277.148 299.309C278.823 298.341 278.335 296.528 277.882 295.743C277.476 295.04 275.893 293.749 274.427 294.596Z" stroke="white" stroke-width="0.5" class="GWVBVMml_64"></path>
<path d="M267.86 293.5L268.464 294.548" stroke="white" stroke-width="0.5" class="GWVBVMml_65"></path>
<path d="M268.405 298.073L270.238 297.015L273.11 301.989" stroke="white" stroke-width="0.5" class="GWVBVMml_66"></path>
<path d="M263.541 300.532L264.297 301.841M266.564 305.768L264.297 301.841M264.297 301.841C264.357 301.34 264.687 300.219 265.525 299.735C266.363 299.252 267.549 299.614 267.852 300.137" stroke="white" stroke-width="0.5" class="GWVBVMml_67"></path>
<path d="M262.877 303.01C262.575 302.486 261.598 302.003 260.55 302.608C259.241 303.363 259.322 304.713 259.625 305.237C259.866 305.655 260.128 306.109 260.229 306.284C260.481 306.72 260.683 307.069 260.683 307.069C261.136 307.855 262.486 307.774 263.271 307.32C264.318 306.716 264.54 305.89 264.237 305.366" stroke="white" stroke-width="0.5" class="GWVBVMml_68"></path>
<path d="M255.111 302.257C254.56 302.109 253.145 301.995 251.888 302.721C250.317 303.628 250.136 305.129 250.59 305.914C251.497 307.485 252.474 307.968 254.307 306.91C256.14 305.852 257.681 306.708 258.286 307.755C259.041 309.064 257.815 310.47 256.987 310.948C256.159 311.426 254.742 311.896 253.503 311.564" stroke="white" stroke-width="0.5" class="GWVBVMml_69"></path>
<path d="M246.342 311.858C246.627 311.344 247.407 310.196 248.245 309.712C249.082 309.228 249.594 309.631 249.745 309.893L252.164 314.082" stroke="white" stroke-width="0.5" class="GWVBVMml_70"></path>
<path d="M250.35 310.94C250.35 310.94 247.786 313.351 247.662 313.54C247.538 313.728 247.38 314.261 247.743 314.889V314.889C248.21 315.698 249.312 315.434 250.107 314.945C250.226 314.871 250.34 314.798 250.442 314.727C251.032 314.318 251.862 313.558 251.862 313.558" stroke="white" stroke-width="0.5" class="GWVBVMml_71"></path>
<path d="M240.39 314.247L244.944 317.902L244.317 311.98" stroke="white" stroke-width="0.5" class="GWVBVMml_72"></path>
<path d="M235.869 317.905C236.154 317.391 236.934 316.242 237.772 315.759C238.61 315.275 239.121 315.678 239.272 315.939L241.691 320.129" stroke="white" stroke-width="0.5" class="GWVBVMml_73"></path>
<path d="M239.877 316.987C239.877 316.987 237.313 319.398 237.189 319.586C237.065 319.774 236.907 320.307 237.27 320.936V320.936C237.737 321.744 238.839 321.481 239.634 320.991C239.753 320.918 239.867 320.844 239.969 320.774C240.559 320.365 241.389 319.605 241.389 319.605" stroke="white" stroke-width="0.5" class="GWVBVMml_74"></path>
<path d="M230.943 314.814L234.873 321.621C235.175 322.145 235.361 323.434 233.685 324.402C232.01 325.369 230.959 324.114 230.643 323.365" stroke="white" stroke-width="0.5" class="GWVBVMml_75"></path>
<path d="M335.786 174.148C336.109 173.825 336.755 172.888 336.755 171.725C336.755 170.561 336.109 169.947 335.786 169.786C335.398 169.592 333.988 169.645 333.605 170.028C333.12 170.513 332.985 171.24 332.878 171.725C332.716 172.452 332.199 173.954 331.423 174.148C330.454 174.391 329.727 173.906 329.485 173.663C329.242 173.421 329 173.179 329 171.725C329 170.561 329.646 169.624 329.969 169.301" stroke="white" stroke-width="0.5" class="GWVBVMml_76"></path>
<path d="M335.786 180.934C336.109 180.611 336.755 179.674 336.755 178.51C336.755 177.347 336.109 176.733 335.786 176.572C335.398 176.378 333.988 176.431 333.605 176.814C333.12 177.299 332.985 178.026 332.878 178.51C332.716 179.237 332.199 180.74 331.423 180.934C330.454 181.176 329.727 180.692 329.485 180.449C329.242 180.207 329 179.965 329 178.51C329 177.347 329.646 176.41 329.969 176.087" stroke="white" stroke-width="0.5" class="GWVBVMml_77"></path>
<path d="M335.543 167.362C335.867 167.12 336.755 166.587 336.755 165.424C336.755 164.26 336.109 163.727 335.786 163.485C335.624 163.323 335.107 163 334.332 163C333.556 163 331.747 163 330.939 163C330.535 163 329.791 163.421 329.485 163.727C329.242 163.969 329 164.454 329 165.181C329 165.908 329.565 166.958 329.969 167.362" stroke="white" stroke-width="0.5" class="GWVBVMml_78"></path>
<path d="M250 26L246 32.9282" stroke="white" stroke-width="0.5" class="GWVBVMml_79"></path>
<path d="M255.173 29.2583L259.708 31.8765" stroke="white" stroke-width="0.5" class="GWVBVMml_80"></path>
<path d="M257.323 30.7712L253.558 37.2919" stroke="white" stroke-width="0.5" class="GWVBVMml_81"></path>
<path d="M248.118 29.2604L251.897 31.4422" stroke="white" stroke-width="0.5" class="GWVBVMml_82"></path>
<path d="M253.779 28.182L249.779 35.1102" stroke="white" stroke-width="0.5" class="GWVBVMml_83"></path>
<path d="M267.761 36.2546L263.997 42.7753L267.02 44.5208" stroke="white" stroke-width="0.5" class="GWVBVMml_84"></path>
<path d="M256.959 39.2556L260.959 32.3274" stroke="white" stroke-width="0.5" class="GWVBVMml_85"></path>
<path d="M260.959 32.3274L260.567 38.452L265.872 35.1638" stroke="white" stroke-width="0.5" class="GWVBVMml_86"></path>
<path d="M265.872 35.1636L261.872 42.0918" stroke="white" stroke-width="0.5" class="GWVBVMml_87"></path>
<style data-made-with="vivus-instant">.GWVBVMml_0{stroke-dasharray:1072 1074;stroke-dashoffset:1073;animation:GWVBVMml_draw 2000ms linear 0ms forwards;}.GWVBVMml_1{stroke-dasharray:952 954;stroke-dashoffset:953;animation:GWVBVMml_draw 2000ms linear 11ms forwards;}.GWVBVMml_2{stroke-dasharray:560 562;stroke-dashoffset:561;animation:GWVBVMml_draw 2000ms linear 22ms forwards;}.GWVBVMml_3{stroke-dasharray:77 79;stroke-dashoffset:78;animation:GWVBVMml_draw 2000ms linear 34ms forwards;}.GWVBVMml_4{stroke-dasharray:85 87;stroke-dashoffset:86;animation:GWVBVMml_draw 2000ms linear 45ms forwards;}.GWVBVMml_5{stroke-dasharray:85 87;stroke-dashoffset:86;animation:GWVBVMml_draw 2000ms linear 57ms forwards;}.GWVBVMml_6{stroke-dasharray:81 83;stroke-dashoffset:82;animation:GWVBVMml_draw 2000ms linear 68ms forwards;}.GWVBVMml_7{stroke-dasharray:79 81;stroke-dashoffset:80;animation:GWVBVMml_draw 2000ms linear 80ms forwards;}.GWVBVMml_8{stroke-dasharray:82 84;stroke-dashoffset:83;animation:GWVBVMml_draw 2000ms linear 91ms forwards;}.GWVBVMml_9{stroke-dasharray:178 180;stroke-dashoffset:179;animation:GWVBVMml_draw 2000ms linear 103ms forwards;}.GWVBVMml_10{stroke-dasharray:41 43;stroke-dashoffset:42;animation:GWVBVMml_draw 2000ms linear 114ms forwards;}.GWVBVMml_11{stroke-dasharray:120 122;stroke-dashoffset:121;animation:GWVBVMml_draw 2000ms linear 126ms forwards;}.GWVBVMml_12{stroke-dasharray:9 11;stroke-dashoffset:10;animation:GWVBVMml_draw 2000ms linear 137ms forwards;}.GWVBVMml_13{stroke-dasharray:50 52;stroke-dashoffset:51;animation:GWVBVMml_draw 2000ms linear 149ms forwards;}.GWVBVMml_14{stroke-dasharray:10 12;stroke-dashoffset:11;animation:GWVBVMml_draw 2000ms linear 160ms forwards;}.GWVBVMml_15{stroke-dasharray:78 80;stroke-dashoffset:79;animation:GWVBVMml_draw 2000ms linear 172ms forwards;}.GWVBVMml_16{stroke-dasharray:138 140;stroke-dashoffset:139;animation:GWVBVMml_draw 2000ms linear 183ms forwards;}.GWVBVMml_17{stroke-dasharray:32 34;stroke-dashoffset:33;animation:GWVBVMml_draw 2000ms linear 195ms forwards;}.GWVBVMml_18{stroke-dasharray:43 45;stroke-dashoffset:44;animation:GWVBVMml_draw 2000ms linear 206ms forwards;}.GWVBVMml_19{stroke-dasharray:146 148;stroke-dashoffset:147;animation:GWVBVMml_draw 2000ms linear 218ms forwards;}.GWVBVMml_20{stroke-dasharray:22 24;stroke-dashoffset:23;animation:GWVBVMml_draw 2000ms linear 229ms forwards;}.GWVBVMml_21{stroke-dasharray:22 24;stroke-dashoffset:23;animation:GWVBVMml_draw 2000ms linear 241ms forwards;}.GWVBVMml_22{stroke-dasharray:41 43;stroke-dashoffset:42;animation:GWVBVMml_draw 2000ms linear 252ms forwards;}.GWVBVMml_23{stroke-dasharray:194 196;stroke-dashoffset:195;animation:GWVBVMml_draw 2000ms linear 264ms forwards;}.GWVBVMml_24{stroke-dasharray:16 18;stroke-dashoffset:17;animation:GWVBVMml_draw 2000ms linear 275ms forwards;}.GWVBVMml_25{stroke-dasharray:137 139;stroke-dashoffset:138;animation:GWVBVMml_draw 2000ms linear 287ms forwards;}.GWVBVMml_26{stroke-dasharray:72 74;stroke-dashoffset:73;animation:GWVBVMml_draw 2000ms linear 298ms forwards;}.GWVBVMml_27{stroke-dasharray:22 24;stroke-dashoffset:23;animation:GWVBVMml_draw 2000ms linear 310ms forwards;}.GWVBVMml_28{stroke-dasharray:10 12;stroke-dashoffset:11;animation:GWVBVMml_draw 2000ms linear 321ms forwards;}.GWVBVMml_29{stroke-dasharray:10 12;stroke-dashoffset:11;animation:GWVBVMml_draw 2000ms linear 333ms forwards;}.GWVBVMml_30{stroke-dasharray:15 17;stroke-dashoffset:16;animation:GWVBVMml_draw 2000ms linear 344ms forwards;}.GWVBVMml_31{stroke-dasharray:13 15;stroke-dashoffset:14;animation:GWVBVMml_draw 2000ms linear 356ms forwards;}.GWVBVMml_32{stroke-dasharray:8 10;stroke-dashoffset:9;animation:GWVBVMml_draw 2000ms linear 367ms forwards;}.GWVBVMml_33{stroke-dasharray:13 15;stroke-dashoffset:14;animation:GWVBVMml_draw 2000ms linear 379ms forwards;}.GWVBVMml_34{stroke-dasharray:13 15;stroke-dashoffset:14;animation:GWVBVMml_draw 2000ms linear 390ms forwards;}.GWVBVMml_35{stroke-dasharray:8 10;stroke-dashoffset:9;animation:GWVBVMml_draw 2000ms linear 402ms forwards;}.GWVBVMml_36{stroke-dasharray:17 19;stroke-dashoffset:18;animation:GWVBVMml_draw 2000ms linear 413ms forwards;}.GWVBVMml_37{stroke-dasharray:3 5;stroke-dashoffset:4;animation:GWVBVMml_draw 2000ms linear 425ms forwards;}.GWVBVMml_38{stroke-dasharray:11 13;stroke-dashoffset:12;animation:GWVBVMml_draw 2000ms linear 436ms forwards;}.GWVBVMml_39{stroke-dasharray:12 14;stroke-dashoffset:13;animation:GWVBVMml_draw 2000ms linear 448ms forwards;}.GWVBVMml_40{stroke-dasharray:7 9;stroke-dashoffset:8;animation:GWVBVMml_draw 2000ms linear 459ms forwards;}.GWVBVMml_41{stroke-dasharray:11 13;stroke-dashoffset:12;animation:GWVBVMml_draw 2000ms linear 471ms forwards;}.GWVBVMml_42{stroke-dasharray:11 13;stroke-dashoffset:12;animation:GWVBVMml_draw 2000ms linear 482ms forwards;}.GWVBVMml_43{stroke-dasharray:15 17;stroke-dashoffset:16;animation:GWVBVMml_draw 2000ms linear 494ms forwards;}.GWVBVMml_44{stroke-dasharray:16 18;stroke-dashoffset:17;animation:GWVBVMml_draw 2000ms linear 505ms forwards;}.GWVBVMml_45{stroke-dasharray:2 4;stroke-dashoffset:3;animation:GWVBVMml_draw 2000ms linear 517ms forwards;}.GWVBVMml_46{stroke-dasharray:8 10;stroke-dashoffset:9;animation:GWVBVMml_draw 2000ms linear 528ms forwards;}.GWVBVMml_47{stroke-dasharray:17 19;stroke-dashoffset:18;animation:GWVBVMml_draw 2000ms linear 540ms forwards;}.GWVBVMml_48{stroke-dasharray:5 7;stroke-dashoffset:6;animation:GWVBVMml_draw 2000ms linear 551ms forwards;}.GWVBVMml_49{stroke-dasharray:20 22;stroke-dashoffset:21;animation:GWVBVMml_draw 2000ms linear 563ms forwards;}.GWVBVMml_50{stroke-dasharray:20 22;stroke-dashoffset:21;animation:GWVBVMml_draw 2000ms linear 574ms forwards;}.GWVBVMml_51{stroke-dasharray:23 25;stroke-dashoffset:24;animation:GWVBVMml_draw 2000ms linear 586ms forwards;}.GWVBVMml_52{stroke-dasharray:7 9;stroke-dashoffset:8;animation:GWVBVMml_draw 2000ms linear 597ms forwards;}.GWVBVMml_53{stroke-dasharray:8 10;stroke-dashoffset:9;animation:GWVBVMml_draw 2000ms linear 609ms forwards;}.GWVBVMml_54{stroke-dasharray:29 31;stroke-dashoffset:30;animation:GWVBVMml_draw 2000ms linear 620ms forwards;}.GWVBVMml_55{stroke-dasharray:20 22;stroke-dashoffset:21;animation:GWVBVMml_draw 2000ms linear 632ms forwards;}.GWVBVMml_56{stroke-dasharray:12 14;stroke-dashoffset:13;animation:GWVBVMml_draw 2000ms linear 643ms forwards;}.GWVBVMml_57{stroke-dasharray:7 9;stroke-dashoffset:8;animation:GWVBVMml_draw 2000ms linear 655ms forwards;}.GWVBVMml_58{stroke-dasharray:8 10;stroke-dashoffset:9;animation:GWVBVMml_draw 2000ms linear 666ms forwards;}.GWVBVMml_59{stroke-dasharray:20 22;stroke-dashoffset:21;animation:GWVBVMml_draw 2000ms linear 678ms forwards;}.GWVBVMml_60{stroke-dasharray:40 42;stroke-dashoffset:41;animation:GWVBVMml_draw 2000ms linear 689ms forwards;}.GWVBVMml_61{stroke-dasharray:4 6;stroke-dashoffset:5;animation:GWVBVMml_draw 2000ms linear 701ms forwards;}.GWVBVMml_62{stroke-dasharray:10 12;stroke-dashoffset:11;animation:GWVBVMml_draw 2000ms linear 712ms forwards;}.GWVBVMml_63{stroke-dasharray:9 11;stroke-dashoffset:10;animation:GWVBVMml_draw 2000ms linear 724ms forwards;}.GWVBVMml_64{stroke-dasharray:16 18;stroke-dashoffset:17;animation:GWVBVMml_draw 2000ms linear 735ms forwards;}.GWVBVMml_65{stroke-dasharray:2 4;stroke-dashoffset:3;animation:GWVBVMml_draw 2000ms linear 747ms forwards;}.GWVBVMml_66{stroke-dasharray:8 10;stroke-dashoffset:9;animation:GWVBVMml_draw 2000ms linear 758ms forwards;}.GWVBVMml_67{stroke-dasharray:12 14;stroke-dashoffset:13;animation:GWVBVMml_draw 2000ms linear 770ms forwards;}.GWVBVMml_68{stroke-dasharray:14 16;stroke-dashoffset:15;animation:GWVBVMml_draw 2000ms linear 781ms forwards;}.GWVBVMml_69{stroke-dasharray:24 26;stroke-dashoffset:25;animation:GWVBVMml_draw 2000ms linear 793ms forwards;}.GWVBVMml_70{stroke-dasharray:10 12;stroke-dashoffset:11;animation:GWVBVMml_draw 2000ms linear 804ms forwards;}.GWVBVMml_71{stroke-dasharray:11 13;stroke-dashoffset:12;animation:GWVBVMml_draw 2000ms linear 816ms forwards;}.GWVBVMml_72{stroke-dasharray:12 14;stroke-dashoffset:13;animation:GWVBVMml_draw 2000ms linear 827ms forwards;}.GWVBVMml_73{stroke-dasharray:10 12;stroke-dashoffset:11;animation:GWVBVMml_draw 2000ms linear 839ms forwards;}.GWVBVMml_74{stroke-dasharray:11 13;stroke-dashoffset:12;animation:GWVBVMml_draw 2000ms linear 850ms forwards;}.GWVBVMml_75{stroke-dasharray:15 17;stroke-dashoffset:16;animation:GWVBVMml_draw 2000ms linear 862ms forwards;}.GWVBVMml_76{stroke-dasharray:19 21;stroke-dashoffset:20;animation:GWVBVMml_draw 2000ms linear 873ms forwards;}.GWVBVMml_77{stroke-dasharray:19 21;stroke-dashoffset:20;animation:GWVBVMml_draw 2000ms linear 885ms forwards;}.GWVBVMml_78{stroke-dasharray:16 18;stroke-dashoffset:17;animation:GWVBVMml_draw 2000ms linear 896ms forwards;}.GWVBVMml_79{stroke-dasharray:8 10;stroke-dashoffset:9;animation:GWVBVMml_draw 2000ms linear 908ms forwards;}.GWVBVMml_80{stroke-dasharray:6 8;stroke-dashoffset:7;animation:GWVBVMml_draw 2000ms linear 919ms forwards;}.GWVBVMml_81{stroke-dasharray:8 10;stroke-dashoffset:9;animation:GWVBVMml_draw 2000ms linear 931ms forwards;}.GWVBVMml_82{stroke-dasharray:5 7;stroke-dashoffset:6;animation:GWVBVMml_draw 2000ms linear 942ms forwards;}.GWVBVMml_83{stroke-dasharray:8 10;stroke-dashoffset:9;animation:GWVBVMml_draw 2000ms linear 954ms forwards;}.GWVBVMml_84{stroke-dasharray:12 14;stroke-dashoffset:13;animation:GWVBVMml_draw 2000ms linear 965ms forwards;}.GWVBVMml_85{stroke-dasharray:8 10;stroke-dashoffset:9;animation:GWVBVMml_draw 2000ms linear 977ms forwards;}.GWVBVMml_86{stroke-dasharray:13 15;stroke-dashoffset:14;animation:GWVBVMml_draw 2000ms linear 988ms forwards;}.GWVBVMml_87{stroke-dasharray:8 10;stroke-dashoffset:9;animation:GWVBVMml_draw 2000ms linear 999ms forwards;}@keyframes GWVBVMml_draw{100%{stroke-dashoffset:0;}}@keyframes GWVBVMml_fade{0%{stroke-opacity:1;}94.44444444444444%{stroke-opacity:1;}100%{stroke-opacity:0;}}</style></svg>
