<svg width="730" height="730" viewBox="0 0 730 730" fill="none" xmlns="http://www.w3.org/2000/svg" style="">
<path stroke="white" stroke-width="5" d="M2.5,365A362.5,362.5 0,1,1 727.5,365A362.5,362.5 0,1,1 2.5,365" class="AdKkwffa_0"></path>
<path stroke="white" stroke-width="5" d="M26.512999999999977,365A338.487,338.487 0,1,1 703.4870000000001,365A338.487,338.487 0,1,1 26.512999999999977,365" class="AdKkwffa_1"></path>
<path stroke="white" stroke-width="5" d="M175.395,365A189.605,189.605 0,1,1 554.605,365A189.605,189.605 0,1,1 175.395,365" class="AdKkwffa_2"></path>
<path d="M202.332 462.38L52.208 549.054" stroke="white" stroke-width="5" class="AdKkwffa_3"></path>
<path d="M50.6597 184.421L199.917 270.595" stroke="white" stroke-width="5" class="AdKkwffa_4"></path>
<path d="M527.441 462.013L678.858 549.434" stroke="white" stroke-width="5" class="AdKkwffa_5"></path>
<path d="M365.961 3.84204L365.961 173.855" stroke="white" stroke-width="5" class="AdKkwffa_6"></path>
<path d="M365.961 556.145L365.961 726.158" stroke="white" stroke-width="5" class="AdKkwffa_7"></path>
<path d="M680.127 184.923L530.473 271.326" stroke="white" stroke-width="5" class="AdKkwffa_8"></path>
<path d="M106.354 322.737V357.905M83.8248 393.072C65.8013 393.072 61.4146 405.449 61.4742 411.637C62.3087 417.322 67.947 428.632 83.8248 428.391C99.7026 428.149 105.46 417.121 106.354 411.637V393.072M83.8248 393.072H106.354M83.8248 393.072C76.3746 393.022 61.4742 389.118 61.4742 373.904C61.4742 359.867 83.8248 357.905 83.8248 357.905M106.354 393.072V357.905M83.8248 357.905C83.8248 357.905 98.8444 357.905 106.354 357.905M83.8248 357.905C78.103 357.905 61.4742 353.709 61.4742 339.34C61.4742 326.963 76.4938 322.737 83.8248 322.737H129.956C136.93 323.24 150.876 327.265 150.876 339.34C150.876 354.433 133.532 357.905 129.956 357.905C127.095 357.905 113.03 357.905 106.354 357.905" stroke="white" stroke-width="5" class="AdKkwffa_9"></path>
<path d="M148.376 375.715C148.376 383.671 140.048 391.025 128.526 391.025C117.003 391.025 108.675 383.671 108.675 375.715C108.675 367.759 117.003 360.405 128.526 360.405C140.048 360.405 148.376 367.759 148.376 375.715Z" stroke="white" stroke-width="5" class="AdKkwffa_10"></path>
<path stroke="white" stroke-width="5" d="M177.3161,584A50.3289,50.3289 0,1,1 277.9739,584A50.3289,50.3289 0,1,1 177.3161,584" class="AdKkwffa_11"></path>
<path d="M181.155 559.91H203.977" stroke="white" stroke-width="5" class="AdKkwffa_12"></path>
<path d="M190.453 559.91L209.355 629.644L230.392 575.547" stroke="white" stroke-width="5" class="AdKkwffa_13"></path>
<path d="M213.909 559.91H239.689" stroke="white" stroke-width="5" class="AdKkwffa_14"></path>
<path d="M225.532 559.526L246.663 629.472L263.92 580.446M263.92 580.446L265.259 576.643C266.034 574.107 269.57 566.626 269.063 560.372C268.429 552.553 264.235 549.657 263.146 548.749C261.878 547.692 257.863 545.791 254.905 547.481C251.946 549.172 250.678 555.3 250.89 557.202C251.101 559.103 252.995 564.59 255.961 567.556C258.497 570.092 262.112 576.713 263.92 580.446Z" stroke="white" stroke-width="5" class="AdKkwffa_15"></path>
<path d="M464.235 639.429L456.25 544.619H546.814L538.829 639.429L501.427 650.277L464.235 639.429Z" stroke="white" stroke-width="5" class="AdKkwffa_16"></path>
<path d="M493.442 564.362V622.94L470.959 616.648" stroke="white" stroke-width="5" class="AdKkwffa_17"></path>
<path d="M532.525 569.785L510.462 569.352V598.641L526.432 596.037L523.91 619.902L505.209 624.892" stroke="white" stroke-width="5" class="AdKkwffa_18"></path>
<path width="100.177" height="93.6279" stroke="white" stroke-width="5" d="M 198.158,94.7107 L 264.335,94.7107 A 17,17,0,0,1,281.335,111.7107 L 281.335,171.33859999999999 A 17,17,0,0,1,264.335,188.33859999999999 L 198.158,188.33859999999999 A 17,17,0,0,1,181.158,171.33859999999999 L 181.158,111.7107 A 17,17,0,0,1,198.158,94.7107" class="AdKkwffa_19"></path>
<path d="M200.114 117.459L229.564 161.645" stroke="white" stroke-width="5" class="AdKkwffa_20"></path>
<path d="M199.272 161.645L229.353 117.657" stroke="white" stroke-width="5" class="AdKkwffa_21"></path>
<path d="M264.062 114.105V131.661M264.062 131.661V157.502C262.099 158.094 257.289 159.277 253.755 159.277C249.337 159.277 240.923 156.121 240.923 145.666C240.923 135.212 245.972 131.661 264.062 131.661Z" stroke="white" stroke-width="5" class="AdKkwffa_22"></path>
<path d="M602.892 348.305H652.521L647.812 396.622L630.061 402.826L612.492 396.622L611.043 383.65M584.96 322.737L593.111 417.491L630.061 428.395L667.374 417.867L675.524 322.737H584.96Z" stroke="white" stroke-width="5" class="AdKkwffa_23"></path>
<path d="M650.167 371.242H610.681" stroke="white" stroke-width="5" class="AdKkwffa_24"></path>
<path d="M454.977 183.498L446.645 88.3684H537.209L528.877 183.498L491.746 194.026L454.977 183.498Z" stroke="white" stroke-width="5" class="AdKkwffa_25"></path>
<path d="M519.459 114.501H470.916L473.814 137.437H512.213L509.315 163.006L491.565 168.082L474.72 163.006L472.909 149.281" stroke="white" stroke-width="5" class="AdKkwffa_26"></path>
<path d="M567.335 651.714L570.527 649.871" stroke="white" class="AdKkwffa_27"></path>
<path d="M567.736 648.387L571.757 655.352C571.869 655.545 572.208 655.865 572.673 655.597C573.137 655.329 573.833 654.927 574.123 654.759" stroke="white" class="AdKkwffa_28"></path>
<path d="M561.532 655.065L566.39 663.48" stroke="white" class="AdKkwffa_29"></path>
<path d="M563.563 653.892C561.938 654.83 562.425 656.612 562.872 657.386C563.334 658.409 564.722 660.187 566.579 659.115C568.436 658.043 567.895 656.034 567.392 655.163C566.943 654.384 565.188 652.954 563.563 653.892Z" stroke="white" class="AdKkwffa_30"></path>
<path d="M556.285 652.677L556.955 653.838" stroke="white" class="AdKkwffa_31"></path>
<path d="M556.889 657.745L558.92 656.572L562.103 662.086" stroke="white" class="AdKkwffa_32"></path>
<path d="M551.498 660.471L552.336 661.922M554.849 666.274L552.336 661.922M552.336 661.922C552.403 661.367 552.768 660.124 553.697 659.588C554.626 659.052 555.941 659.453 556.276 660.034" stroke="white" class="AdKkwffa_33"></path>
<path d="M550.763 663.217C550.427 662.637 549.345 662.101 548.184 662.771C546.733 663.609 546.823 665.105 547.158 665.685C547.426 666.149 547.716 666.652 547.828 666.846C548.107 667.329 548.33 667.716 548.33 667.716C548.833 668.587 550.329 668.497 551.199 667.995C552.36 667.324 552.605 666.409 552.27 665.829" stroke="white" class="AdKkwffa_34"></path>
<path d="M542.156 662.383C541.545 662.219 539.977 662.093 538.584 662.897C536.843 663.903 536.642 665.566 537.145 666.436C538.15 668.178 539.233 668.713 541.264 667.54C543.295 666.368 545.004 667.316 545.674 668.477C546.511 669.927 545.153 671.486 544.235 672.016C543.317 672.545 541.746 673.066 540.373 672.698" stroke="white" class="AdKkwffa_35"></path>
<path d="M532.436 673.024C532.753 672.454 533.617 671.181 534.545 670.645C535.474 670.109 536.041 670.555 536.209 670.846L538.889 675.488" stroke="white" class="AdKkwffa_36"></path>
<path d="M536.879 672.007C536.879 672.007 534.037 674.679 533.899 674.888C533.762 675.096 533.587 675.687 533.989 676.383V676.383C534.506 677.279 535.728 676.987 536.609 676.445C536.741 676.363 536.868 676.282 536.98 676.204C537.635 675.751 538.554 674.908 538.554 674.908" stroke="white" class="AdKkwffa_37"></path>
<path d="M525.84 675.671L530.887 679.722L530.193 673.158" stroke="white" class="AdKkwffa_38"></path>
<path d="M520.829 679.725C521.145 679.156 522.01 677.883 522.938 677.347C523.867 676.811 524.434 677.257 524.602 677.547L527.282 682.19" stroke="white" class="AdKkwffa_39"></path>
<path d="M525.272 678.708C525.272 678.708 522.43 681.38 522.292 681.589C522.155 681.797 521.98 682.388 522.382 683.084V683.084C522.9 683.981 524.121 683.688 525.002 683.146C525.134 683.064 525.261 682.983 525.374 682.905C526.028 682.452 526.947 681.61 526.947 681.61" stroke="white" class="AdKkwffa_40"></path>
<path d="M515.37 676.3L519.725 683.845C520.061 684.425 520.266 685.854 518.409 686.926C516.552 687.998 515.388 686.607 515.038 685.777" stroke="white" class="AdKkwffa_41"></path>
<path d="M219.486 685.528C220.588 683.619 216.454 681.232 215.352 683.14C214.25 685.049 218.752 686.8 217.65 688.708C217.283 689.344 216.096 689.931 214.824 689.197C213.552 688.462 212.463 687.409 213.197 686.137" stroke="white" class="AdKkwffa_42"></path>
<path d="M213.034 682.014C214.136 680.106 210.001 677.718 208.899 679.627C207.797 681.535 212.299 683.286 211.198 685.195C210.83 685.831 209.643 686.418 208.371 685.683C207.099 684.949 206.01 683.896 206.745 682.624" stroke="white" class="AdKkwffa_43"></path>
<path d="M201.167 676.859L205.62 679.43C206.11 678.582 206.644 676.628 204.863 675.6C202.636 674.314 201.217 676.039 200.666 676.993C200.115 677.948 198.829 680.174 201.374 681.643C202.646 682.377 203.967 682.292 204.518 681.338" stroke="white" class="AdKkwffa_44"></path>
<path d="M195.957 670.458L192.468 676.502" stroke="white" class="AdKkwffa_45"></path>
<path d="M194.305 673.321C194.855 672.367 196.403 670.716 198.184 671.744C199.965 672.772 199.541 673.8 199.174 674.436" stroke="white" class="AdKkwffa_46"></path>
<path d="M184.199 671.727L186.953 666.956M186.953 666.956L190.075 661.549L194.528 664.12C195.103 664.593 195.995 665.985 194.967 667.766C193.939 669.547 191.74 669.437 190.77 669.16L186.953 666.956Z" stroke="white" class="AdKkwffa_47"></path>
<path d="M177.943 664.934L178.769 663.503C179.479 662.274 181.051 661.852 182.281 662.562C183.686 663.374 184.168 665.17 183.356 666.576L182.714 667.689C181.953 669.006 180.268 669.458 178.951 668.697C177.633 667.937 177.182 666.252 177.943 664.934Z" stroke="white" class="AdKkwffa_48"></path>
<path d="M187.58 659.26L181.336 670.074" stroke="white" class="AdKkwffa_49"></path>
<path d="M173.693 657.604L170.204 663.647" stroke="white" class="AdKkwffa_50"></path>
<path d="M172.041 660.467C172.592 659.513 174.139 657.861 175.92 658.89C177.701 659.918 177.277 660.946 176.91 661.582" stroke="white" class="AdKkwffa_51"></path>
<path d="M164.584 657.222L165.411 655.791C166.121 654.561 167.693 654.14 168.922 654.85C170.328 655.661 170.809 657.458 169.998 658.863L169.355 659.977C168.595 661.294 166.91 661.745 165.593 660.985C164.275 660.224 163.824 658.54 164.584 657.222Z" stroke="white" class="AdKkwffa_52"></path>
<path d="M156.863 641.95L153.714 653.279L160.617 647.934L159.758 656.768L167.995 648.377" stroke="white" class="AdKkwffa_53"></path>
<path d="M541.408 52.8206L533.993 64.0388" stroke="white" class="AdKkwffa_54"></path>
<path d="M550.428 59.2568L558.347 64.491" stroke="white" class="AdKkwffa_55"></path>
<path d="M554.17 62.2039L547.191 72.7622" stroke="white" class="AdKkwffa_56"></path>
<path d="M537.918 58.0996L544.517 62.4614" stroke="white" class="AdKkwffa_57"></path>
<path d="M548.006 57.1821L540.591 68.4004" stroke="white" class="AdKkwffa_58"></path>
<path d="M572.423 73.3208L565.444 83.8792L570.723 87.3686" stroke="white" class="AdKkwffa_59"></path>
<path d="M553.13 76.6877L560.545 65.4695" stroke="white" class="AdKkwffa_60"></path>
<path d="M560.545 65.4695L559.565 75.9038L569.123 71.1398" stroke="white" class="AdKkwffa_61"></path>
<path d="M569.124 71.1396L561.709 82.3579" stroke="white" class="AdKkwffa_62"></path>
<path d="M721.475 371.304C722.076 370.703 723.276 368.962 723.276 366.801C723.276 364.64 722.076 363.499 721.475 363.199C720.754 362.839 718.135 362.938 717.423 363.65C716.523 364.55 716.273 365.901 716.072 366.801C715.772 368.152 714.812 370.944 713.371 371.304C711.57 371.754 710.219 370.854 709.769 370.403C709.319 369.953 708.868 369.503 708.868 366.801C708.868 364.64 710.069 362.899 710.669 362.299" stroke="white" class="AdKkwffa_63"></path>
<path d="M721.475 383.91C722.076 383.31 723.276 381.569 723.276 379.408C723.276 377.247 722.076 376.106 721.475 375.806C720.754 375.445 718.135 375.544 717.423 376.256C716.523 377.157 716.273 378.507 716.072 379.408C715.772 380.759 714.812 383.55 713.371 383.91C711.57 384.361 710.219 383.46 709.769 383.01C709.319 382.56 708.868 382.109 708.868 379.408C708.868 377.247 710.069 375.506 710.669 374.906" stroke="white" class="AdKkwffa_64"></path>
<path d="M721.025 358.697C721.625 358.246 723.276 357.256 723.276 355.095C723.276 352.934 722.076 351.943 721.475 351.493C721.175 351.193 720.215 350.592 718.774 350.592C717.333 350.592 713.971 350.592 712.47 350.592C711.72 350.592 710.338 351.374 709.769 351.943C709.319 352.393 708.868 353.294 708.868 354.645C708.868 355.995 709.919 357.946 710.669 358.697" stroke="white" class="AdKkwffa_65"></path>
<path d="M13.516 351.21C13.1729 350.638 12.4868 349.22 12.4868 348.122C12.4868 347.025 13.1729 346.75 13.516 346.75H19.0047" stroke="white" class="AdKkwffa_66"></path>
<path d="M14.8341 346.891C14.8341 346.891 15.7489 350.779 15.8632 351.008C15.9776 351.237 16.4121 351.694 17.2354 351.694V351.694C18.2947 351.694 18.6613 350.461 18.6311 349.402C18.6266 349.244 18.6191 349.09 18.6076 348.95C18.5409 348.138 18.2646 346.891 18.2646 346.891" stroke="white" class="AdKkwffa_67"></path>
<path d="M12.1438 362.187H18.6617" stroke="white" class="AdKkwffa_68"></path>
<path d="M13.859 362.187C13.2873 361.844 12.1438 360.952 12.1438 360.129C12.1438 359.1 12.8299 358.07 13.859 358.07C14.6823 358.07 17.4038 358.07 18.6617 358.07" stroke="white" class="AdKkwffa_69"></path>
<path d="M13.859 358.071C13.2873 357.728 12.1438 356.836 12.1438 356.012C12.1438 354.983 12.8299 353.954 13.859 353.954C14.6823 353.954 17.4038 353.954 18.6617 353.954" stroke="white" class="AdKkwffa_70"></path>
<path d="M12.1438 364.589H20.3769C20.9486 364.703 22.0921 365.343 22.0921 366.99C22.0921 369.048 20.7199 369.048 20.3769 369.048" stroke="white" class="AdKkwffa_71"></path>
<path transform="rotate(-90 15.2312 366.99)" stroke="white" d="M12.986839999999999,366.99A2.24436,2.24436 0,1,1 17.475559999999998,366.99A2.24436,2.24436 0,1,1 12.986839999999999,366.99" class="AdKkwffa_72"></path>
<path d="M7.6842 373.165L9.05638 373.165" stroke="white" class="AdKkwffa_73"></path>
<path d="M12.4868 375.223V373.165H18.6616" stroke="white" class="AdKkwffa_74"></path>
<path d="M7.6842 376.595V382.427H18.6616" stroke="white" class="AdKkwffa_75"></path>
<path d="M12.83 382.427V377.624" stroke="white" class="AdKkwffa_76"></path>
<path d="M200.979 61.3488L194.122 51.1848L198.057 48.5304C199.368 47.6456 201.785 48.4002 202.449 49.3838L205.988 54.6297C207.05 56.2035 205.714 57.9953 204.914 58.6944L200.979 61.3488Z" stroke="white" class="AdKkwffa_77"></path>
<path d="M184.065 57.4929L198.906 63.2251" stroke="white" class="AdKkwffa_78"></path>
<path d="M191.278 52.6265L191.036 68.5339" stroke="white" class="AdKkwffa_79"></path>
<path d="M177.234 72.1203L181.825 69.0235C181.235 68.1492 179.596 66.7102 177.76 67.9489C175.465 69.4973 176.464 71.6857 177.128 72.6693C177.791 73.653 179.34 75.9481 181.963 74.1785C183.274 73.2937 183.815 71.9743 183.152 70.9907" stroke="white" class="AdKkwffa_80"></path>
<path d="M175.607 75.3652L174.611 73.8898C173.756 72.6223 172.035 72.288 170.768 73.1431C169.319 74.1204 168.937 76.0871 169.915 77.5357L170.689 78.6832C171.605 80.0413 173.449 80.3995 174.807 79.4833C176.165 78.567 176.523 76.7233 175.607 75.3652Z" stroke="white" class="AdKkwffa_81"></path>
<path d="M164.827 69.9946L172.348 81.1422" stroke="white" class="AdKkwffa_82"></path>
<path d="M162.599 83.6643L161.603 82.1889C160.748 80.9213 161.082 79.2006 162.35 78.3454C163.799 77.3681 165.765 77.7501 166.743 79.1988L167.517 80.3463C168.433 81.7044 168.075 83.5481 166.717 84.4644C165.359 85.3806 163.515 85.0224 162.599 83.6643Z" stroke="white" class="AdKkwffa_83"></path>
<path d="M155.607 88.8582L154.611 87.3827C153.756 86.1152 154.091 84.3944 155.358 83.5392C156.807 82.5619 158.773 82.944 159.751 84.3926L160.525 85.5402C161.441 86.8983 161.083 88.742 159.725 89.6582C158.367 90.5744 156.523 90.2163 155.607 88.8582Z" stroke="white" class="AdKkwffa_84"></path>
<path d="M154.663 76.8516L162.184 87.9992" stroke="white" class="AdKkwffa_85"></path>
<path d="M147.758 97.7323L144.392 84.2582L155.954 92.2024" stroke="white" class="AdKkwffa_86"></path>
<path d="M146.636 93.241L150.242 90.8078" stroke="white" class="AdKkwffa_87"></path>
<style data-made-with="vivus-instant">.AdKkwffa_0{stroke-dasharray:2278 2280;stroke-dashoffset:2279;animation:AdKkwffa_draw 2000ms linear 0ms forwards;}.AdKkwffa_1{stroke-dasharray:2128 2130;stroke-dashoffset:2129;animation:AdKkwffa_draw 2000ms linear 11ms forwards;}.AdKkwffa_2{stroke-dasharray:1192 1194;stroke-dashoffset:1193;animation:AdKkwffa_draw 2000ms linear 22ms forwards;}.AdKkwffa_3{stroke-dasharray:174 176;stroke-dashoffset:175;animation:AdKkwffa_draw 2000ms linear 34ms forwards;}.AdKkwffa_4{stroke-dasharray:173 175;stroke-dashoffset:174;animation:AdKkwffa_draw 2000ms linear 45ms forwards;}.AdKkwffa_5{stroke-dasharray:175 177;stroke-dashoffset:176;animation:AdKkwffa_draw 2000ms linear 57ms forwards;}.AdKkwffa_6{stroke-dasharray:171 173;stroke-dashoffset:172;animation:AdKkwffa_draw 2000ms linear 68ms forwards;}.AdKkwffa_7{stroke-dasharray:171 173;stroke-dashoffset:172;animation:AdKkwffa_draw 2000ms linear 80ms forwards;}.AdKkwffa_8{stroke-dasharray:173 175;stroke-dashoffset:174;animation:AdKkwffa_draw 2000ms linear 91ms forwards;}.AdKkwffa_9{stroke-dasharray:484 486;stroke-dashoffset:485;animation:AdKkwffa_draw 2000ms linear 103ms forwards;}.AdKkwffa_10{stroke-dasharray:111 113;stroke-dashoffset:112;animation:AdKkwffa_draw 2000ms linear 114ms forwards;}.AdKkwffa_11{stroke-dasharray:317 319;stroke-dashoffset:318;animation:AdKkwffa_draw 2000ms linear 126ms forwards;}.AdKkwffa_12{stroke-dasharray:23 25;stroke-dashoffset:24;animation:AdKkwffa_draw 2000ms linear 137ms forwards;}.AdKkwffa_13{stroke-dasharray:131 133;stroke-dashoffset:132;animation:AdKkwffa_draw 2000ms linear 149ms forwards;}.AdKkwffa_14{stroke-dasharray:26 28;stroke-dashoffset:27;animation:AdKkwffa_draw 2000ms linear 160ms forwards;}.AdKkwffa_15{stroke-dasharray:206 208;stroke-dashoffset:207;animation:AdKkwffa_draw 2000ms linear 172ms forwards;}.AdKkwffa_16{stroke-dasharray:359 361;stroke-dashoffset:360;animation:AdKkwffa_draw 2000ms linear 183ms forwards;}.AdKkwffa_17{stroke-dasharray:82 84;stroke-dashoffset:83;animation:AdKkwffa_draw 2000ms linear 195ms forwards;}.AdKkwffa_18{stroke-dasharray:111 113;stroke-dashoffset:112;animation:AdKkwffa_draw 2000ms linear 206ms forwards;}.AdKkwffa_19{stroke-dasharray:359 361;stroke-dashoffset:360;animation:AdKkwffa_draw 2000ms linear 218ms forwards;}.AdKkwffa_20{stroke-dasharray:54 56;stroke-dashoffset:55;animation:AdKkwffa_draw 2000ms linear 229ms forwards;}.AdKkwffa_21{stroke-dasharray:54 56;stroke-dashoffset:55;animation:AdKkwffa_draw 2000ms linear 241ms forwards;}.AdKkwffa_22{stroke-dasharray:107 109;stroke-dashoffset:108;animation:AdKkwffa_draw 2000ms linear 252ms forwards;}.AdKkwffa_23{stroke-dasharray:508 510;stroke-dashoffset:509;animation:AdKkwffa_draw 2000ms linear 264ms forwards;}.AdKkwffa_24{stroke-dasharray:40 42;stroke-dashoffset:41;animation:AdKkwffa_draw 2000ms linear 275ms forwards;}.AdKkwffa_25{stroke-dasharray:359 361;stroke-dashoffset:360;animation:AdKkwffa_draw 2000ms linear 287ms forwards;}.AdKkwffa_26{stroke-dasharray:186 188;stroke-dashoffset:187;animation:AdKkwffa_draw 2000ms linear 298ms forwards;}.AdKkwffa_27{stroke-dasharray:4 6;stroke-dashoffset:5;animation:AdKkwffa_draw 2000ms linear 310ms forwards;}.AdKkwffa_28{stroke-dasharray:11 13;stroke-dashoffset:12;animation:AdKkwffa_draw 2000ms linear 321ms forwards;}.AdKkwffa_29{stroke-dasharray:10 12;stroke-dashoffset:11;animation:AdKkwffa_draw 2000ms linear 333ms forwards;}.AdKkwffa_30{stroke-dasharray:18 20;stroke-dashoffset:19;animation:AdKkwffa_draw 2000ms linear 344ms forwards;}.AdKkwffa_31{stroke-dasharray:2 4;stroke-dashoffset:3;animation:AdKkwffa_draw 2000ms linear 356ms forwards;}.AdKkwffa_32{stroke-dasharray:9 11;stroke-dashoffset:10;animation:AdKkwffa_draw 2000ms linear 367ms forwards;}.AdKkwffa_33{stroke-dasharray:13 15;stroke-dashoffset:14;animation:AdKkwffa_draw 2000ms linear 379ms forwards;}.AdKkwffa_34{stroke-dasharray:15 17;stroke-dashoffset:16;animation:AdKkwffa_draw 2000ms linear 390ms forwards;}.AdKkwffa_35{stroke-dasharray:27 29;stroke-dashoffset:28;animation:AdKkwffa_draw 2000ms linear 402ms forwards;}.AdKkwffa_36{stroke-dasharray:11 13;stroke-dashoffset:12;animation:AdKkwffa_draw 2000ms linear 413ms forwards;}.AdKkwffa_37{stroke-dasharray:12 14;stroke-dashoffset:13;animation:AdKkwffa_draw 2000ms linear 425ms forwards;}.AdKkwffa_38{stroke-dasharray:14 16;stroke-dashoffset:15;animation:AdKkwffa_draw 2000ms linear 436ms forwards;}.AdKkwffa_39{stroke-dasharray:11 13;stroke-dashoffset:12;animation:AdKkwffa_draw 2000ms linear 448ms forwards;}.AdKkwffa_40{stroke-dasharray:12 14;stroke-dashoffset:13;animation:AdKkwffa_draw 2000ms linear 459ms forwards;}.AdKkwffa_41{stroke-dasharray:17 19;stroke-dashoffset:18;animation:AdKkwffa_draw 2000ms linear 471ms forwards;}.AdKkwffa_42{stroke-dasharray:21 23;stroke-dashoffset:22;animation:AdKkwffa_draw 2000ms linear 482ms forwards;}.AdKkwffa_43{stroke-dasharray:21 23;stroke-dashoffset:22;animation:AdKkwffa_draw 2000ms linear 494ms forwards;}.AdKkwffa_44{stroke-dasharray:24 26;stroke-dashoffset:25;animation:AdKkwffa_draw 2000ms linear 505ms forwards;}.AdKkwffa_45{stroke-dasharray:7 9;stroke-dashoffset:8;animation:AdKkwffa_draw 2000ms linear 517ms forwards;}.AdKkwffa_46{stroke-dasharray:8 10;stroke-dashoffset:9;animation:AdKkwffa_draw 2000ms linear 528ms forwards;}.AdKkwffa_47{stroke-dasharray:31 33;stroke-dashoffset:32;animation:AdKkwffa_draw 2000ms linear 540ms forwards;}.AdKkwffa_48{stroke-dasharray:21 23;stroke-dashoffset:22;animation:AdKkwffa_draw 2000ms linear 551ms forwards;}.AdKkwffa_49{stroke-dasharray:13 15;stroke-dashoffset:14;animation:AdKkwffa_draw 2000ms linear 563ms forwards;}.AdKkwffa_50{stroke-dasharray:7 9;stroke-dashoffset:8;animation:AdKkwffa_draw 2000ms linear 574ms forwards;}.AdKkwffa_51{stroke-dasharray:8 10;stroke-dashoffset:9;animation:AdKkwffa_draw 2000ms linear 586ms forwards;}.AdKkwffa_52{stroke-dasharray:21 23;stroke-dashoffset:22;animation:AdKkwffa_draw 2000ms linear 597ms forwards;}.AdKkwffa_53{stroke-dasharray:42 44;stroke-dashoffset:43;animation:AdKkwffa_draw 2000ms linear 609ms forwards;}.AdKkwffa_54{stroke-dasharray:14 16;stroke-dashoffset:15;animation:AdKkwffa_draw 2000ms linear 620ms forwards;}.AdKkwffa_55{stroke-dasharray:10 12;stroke-dashoffset:11;animation:AdKkwffa_draw 2000ms linear 632ms forwards;}.AdKkwffa_56{stroke-dasharray:13 15;stroke-dashoffset:14;animation:AdKkwffa_draw 2000ms linear 643ms forwards;}.AdKkwffa_57{stroke-dasharray:8 10;stroke-dashoffset:9;animation:AdKkwffa_draw 2000ms linear 655ms forwards;}.AdKkwffa_58{stroke-dasharray:14 16;stroke-dashoffset:15;animation:AdKkwffa_draw 2000ms linear 666ms forwards;}.AdKkwffa_59{stroke-dasharray:19 21;stroke-dashoffset:20;animation:AdKkwffa_draw 2000ms linear 678ms forwards;}.AdKkwffa_60{stroke-dasharray:14 16;stroke-dashoffset:15;animation:AdKkwffa_draw 2000ms linear 689ms forwards;}.AdKkwffa_61{stroke-dasharray:22 24;stroke-dashoffset:23;animation:AdKkwffa_draw 2000ms linear 701ms forwards;}.AdKkwffa_62{stroke-dasharray:14 16;stroke-dashoffset:15;animation:AdKkwffa_draw 2000ms linear 712ms forwards;}.AdKkwffa_63{stroke-dasharray:35 37;stroke-dashoffset:36;animation:AdKkwffa_draw 2000ms linear 724ms forwards;}.AdKkwffa_64{stroke-dasharray:35 37;stroke-dashoffset:36;animation:AdKkwffa_draw 2000ms linear 735ms forwards;}.AdKkwffa_65{stroke-dasharray:29 31;stroke-dashoffset:30;animation:AdKkwffa_draw 2000ms linear 747ms forwards;}.AdKkwffa_66{stroke-dasharray:11 13;stroke-dashoffset:12;animation:AdKkwffa_draw 2000ms linear 758ms forwards;}.AdKkwffa_67{stroke-dasharray:12 14;stroke-dashoffset:13;animation:AdKkwffa_draw 2000ms linear 770ms forwards;}.AdKkwffa_68{stroke-dasharray:7 9;stroke-dashoffset:8;animation:AdKkwffa_draw 2000ms linear 781ms forwards;}.AdKkwffa_69{stroke-dasharray:11 13;stroke-dashoffset:12;animation:AdKkwffa_draw 2000ms linear 793ms forwards;}.AdKkwffa_70{stroke-dasharray:11 13;stroke-dashoffset:12;animation:AdKkwffa_draw 2000ms linear 804ms forwards;}.AdKkwffa_71{stroke-dasharray:15 17;stroke-dashoffset:16;animation:AdKkwffa_draw 2000ms linear 816ms forwards;}.AdKkwffa_72{stroke-dasharray:15 17;stroke-dashoffset:16;animation:AdKkwffa_draw 2000ms linear 827ms forwards;}.AdKkwffa_73{stroke-dasharray:2 4;stroke-dashoffset:3;animation:AdKkwffa_draw 2000ms linear 839ms forwards;}.AdKkwffa_74{stroke-dasharray:9 11;stroke-dashoffset:10;animation:AdKkwffa_draw 2000ms linear 850ms forwards;}.AdKkwffa_75{stroke-dasharray:17 19;stroke-dashoffset:18;animation:AdKkwffa_draw 2000ms linear 862ms forwards;}.AdKkwffa_76{stroke-dasharray:5 7;stroke-dashoffset:6;animation:AdKkwffa_draw 2000ms linear 873ms forwards;}.AdKkwffa_77{stroke-dasharray:38 40;stroke-dashoffset:39;animation:AdKkwffa_draw 2000ms linear 885ms forwards;}.AdKkwffa_78{stroke-dasharray:16 18;stroke-dashoffset:17;animation:AdKkwffa_draw 2000ms linear 896ms forwards;}.AdKkwffa_79{stroke-dasharray:16 18;stroke-dashoffset:17;animation:AdKkwffa_draw 2000ms linear 908ms forwards;}.AdKkwffa_80{stroke-dasharray:26 28;stroke-dashoffset:27;animation:AdKkwffa_draw 2000ms linear 919ms forwards;}.AdKkwffa_81{stroke-dasharray:22 24;stroke-dashoffset:23;animation:AdKkwffa_draw 2000ms linear 931ms forwards;}.AdKkwffa_82{stroke-dasharray:14 16;stroke-dashoffset:15;animation:AdKkwffa_draw 2000ms linear 942ms forwards;}.AdKkwffa_83{stroke-dasharray:22 24;stroke-dashoffset:23;animation:AdKkwffa_draw 2000ms linear 954ms forwards;}.AdKkwffa_84{stroke-dasharray:22 24;stroke-dashoffset:23;animation:AdKkwffa_draw 2000ms linear 965ms forwards;}.AdKkwffa_85{stroke-dasharray:14 16;stroke-dashoffset:15;animation:AdKkwffa_draw 2000ms linear 977ms forwards;}.AdKkwffa_86{stroke-dasharray:28 30;stroke-dashoffset:29;animation:AdKkwffa_draw 2000ms linear 988ms forwards;}.AdKkwffa_87{stroke-dasharray:5 7;stroke-dashoffset:6;animation:AdKkwffa_draw 2000ms linear 999ms forwards;}@keyframes AdKkwffa_draw{100%{stroke-dashoffset:0;}}@keyframes AdKkwffa_fade{0%{stroke-opacity:1;}94.44444444444444%{stroke-opacity:1;}100%{stroke-opacity:0;}}</style></svg>
