<svg width="900" height="900" viewBox="0 0 900 900" fill="none" xmlns="http://www.w3.org/2000/svg" style="">
<path stroke="white" stroke-width="5" d="M2.5,450A447.5,447.5 0,1,1 897.5,450A447.5,447.5 0,1,1 2.5,450" class="vMaaECcN_0"></path>
<path stroke="white" stroke-width="5" d="M52.5,450A397.5,397.5 0,1,1 847.5,450A397.5,397.5 0,1,1 52.5,450" class="vMaaECcN_1"></path>
<path stroke="white" stroke-width="5" d="M252.5,450A197.5,197.5 0,1,1 647.5,450A197.5,197.5 0,1,1 252.5,450" class="vMaaECcN_2"></path>
<path d="M450 0V250" stroke="white" stroke-width="5" class="vMaaECcN_3"></path>
<path d="M450 650V900" stroke="white" stroke-width="5" class="vMaaECcN_4"></path>
<path d="M839.711 675L623.205 550" stroke="white" stroke-width="5" class="vMaaECcN_5"></path>
<path d="M839.423 225L622.916 350" stroke="white" stroke-width="5" class="vMaaECcN_6"></path>
<path d="M276.795 350L60.2886 225" stroke="white" stroke-width="5" class="vMaaECcN_7"></path>
<path d="M276.506 550L60 675" stroke="white" stroke-width="5" class="vMaaECcN_8"></path>
<path d="M165.22 391V434.27M137.501 477.54C115.325 477.54 109.927 492.768 110.001 500.382C111.027 507.377 117.965 521.292 137.501 520.995C157.036 520.698 164.12 507.129 165.22 500.382V477.54M137.501 477.54H165.22M137.501 477.54C128.334 477.478 110.001 472.674 110.001 453.955C110.001 436.684 137.501 434.27 137.501 434.27M165.22 477.54V434.27M137.501 434.27C137.501 434.27 155.98 434.27 165.22 434.27M137.501 434.27C130.461 434.27 110.001 429.107 110.001 411.428C110.001 396.2 128.481 391 137.501 391H194.26C202.84 391.619 220 396.571 220 411.428C220 429.999 198.66 434.27 194.26 434.27C190.74 434.27 173.434 434.27 165.22 434.27" stroke="white" stroke-width="5" class="vMaaECcN_9"></path>
<path d="M217.5 456.184C217.5 466.406 206.867 475.597 192.5 475.597C178.134 475.597 167.5 466.406 167.5 456.184C167.5 445.961 178.134 436.77 192.5 436.77C206.867 436.77 217.5 445.961 217.5 456.184Z" stroke="white" stroke-width="5" class="vMaaECcN_10"></path>
<path stroke="white" stroke-width="5" d="M233.5,709A72.5,72.5 0,1,1 378.5,709A72.5,72.5 0,1,1 233.5,709" class="vMaaECcN_11"></path>
<path d="M240 674.8H272.4" stroke="white" stroke-width="5" class="vMaaECcN_12"></path>
<path d="M253.2 674.8L280.034 773.8L309.9 697" stroke="white" stroke-width="5" class="vMaaECcN_13"></path>
<path d="M286.5 674.8H323.1" stroke="white" stroke-width="5" class="vMaaECcN_14"></path>
<path d="M303 674.255L333 773.555L357.499 703.955M357.499 703.955L359.4 698.555C360.5 694.955 365.52 684.335 364.8 675.455C363.9 664.355 357.946 660.244 356.4 658.955C354.6 657.455 348.9 654.755 344.7 657.155C340.5 659.555 338.7 668.255 339 670.955C339.3 673.655 341.989 681.444 346.2 685.655C349.8 689.255 354.933 698.655 357.499 703.955Z" stroke="white" stroke-width="5" class="vMaaECcN_15"></path>
<path d="M546.58 775.626L536 650H656L645.42 775.626L595.861 790L546.58 775.626Z" stroke="white" stroke-width="5" class="vMaaECcN_16"></path>
<path d="M585.281 676.16V753.778L555.49 745.441" stroke="white" stroke-width="5" class="vMaaECcN_17"></path>
<path d="M637.067 683.347L607.833 682.772V721.581L628.993 718.131L625.652 749.753L600.872 756.365" stroke="white" stroke-width="5" class="vMaaECcN_18"></path>
<path width="125" height="125" stroke="white" stroke-width="5" d="M 270.5,137.5 L 321.5,137.5 A 37,37,0,0,1,358.5,174.5 L 358.5,225.5 A 37,37,0,0,1,321.5,262.5 L 270.5,262.5 A 37,37,0,0,1,233.5,225.5 L 233.5,174.5 A 37,37,0,0,1,270.5,137.5" class="vMaaECcN_19"></path>
<path d="M257.52 168.28L293.92 226.52" stroke="white" stroke-width="5" class="vMaaECcN_20"></path>
<path d="M256.48 226.52L293.66 168.54" stroke="white" stroke-width="5" class="vMaaECcN_21"></path>
<path d="M336.56 163.86V187M336.56 187V221.06C334.133 221.84 328.188 223.4 323.82 223.4C318.36 223.4 307.96 219.24 307.96 205.46C307.96 191.68 314.2 187 336.56 187Z" stroke="white" stroke-width="5" class="vMaaECcN_22"></path>
<path d="M709.76 425.879H775.52L769.28 489.9L745.76 498.121L722.48 489.9L720.56 472.712M686 392L696.8 517.552L745.76 532L795.2 518.05L806 392H686Z" stroke="white" stroke-width="5" class="vMaaECcN_23"></path>
<path d="M772.4 456.271H720.08" stroke="white" stroke-width="5" class="vMaaECcN_24"></path>
<path d="M547.04 251.05L536 125H656L644.96 251.05L595.76 265L547.04 251.05Z" stroke="white" stroke-width="5" class="vMaaECcN_25"></path>
<path d="M632.48 159.626H568.16L572 190.018H622.88L619.04 223.897L595.52 230.623L573.2 223.897L570.8 205.712" stroke="white" stroke-width="5" class="vMaaECcN_26"></path>
<path d="M708.829 786.87L713.592 784.12" stroke="white" class="vMaaECcN_27"></path>
<path d="M709.427 781.906L715.427 792.298C715.593 792.587 716.1 793.064 716.793 792.664C717.486 792.264 718.525 791.664 718.958 791.414" stroke="white" class="vMaaECcN_28"></path>
<path d="M700.168 791.87L707.418 804.427" stroke="white" class="vMaaECcN_29"></path>
<path d="M703.199 790.12C700.775 791.52 701.502 794.18 702.168 795.334C702.857 796.861 704.928 799.514 707.699 797.914C710.471 796.314 709.664 793.316 708.914 792.017C708.243 790.855 705.624 788.72 703.199 790.12Z" stroke="white" class="vMaaECcN_30"></path>
<path d="M692.338 788.308L693.338 790.04" stroke="white" class="vMaaECcN_31"></path>
<path d="M693.24 795.87L696.271 794.12L701.021 802.347" stroke="white" class="vMaaECcN_32"></path>
<path d="M685.196 799.937L686.446 802.102M690.196 808.597L686.446 802.102M686.446 802.102C686.546 801.275 687.091 799.42 688.477 798.62C689.863 797.82 691.825 798.419 692.325 799.285" stroke="white" class="vMaaECcN_33"></path>
<path d="M684.098 804.035C683.598 803.169 681.982 802.37 680.25 803.37C678.085 804.62 678.219 806.852 678.719 807.718C679.119 808.411 679.552 809.162 679.719 809.45C680.135 810.172 680.469 810.749 680.469 810.749C681.219 812.048 683.451 811.914 684.75 811.164C686.482 810.164 686.848 808.798 686.348 807.932" stroke="white" class="vMaaECcN_34"></path>
<path d="M671.255 802.79C670.344 802.546 668.003 802.358 665.924 803.558C663.326 805.058 663.027 807.54 663.777 808.839C665.277 811.437 666.893 812.236 669.924 810.486C672.956 808.736 675.505 810.151 676.505 811.883C677.755 814.048 675.727 816.374 674.357 817.164C672.988 817.955 670.643 818.731 668.594 818.182" stroke="white" class="vMaaECcN_35"></path>
<path d="M656.751 818.669C657.223 817.819 658.513 815.92 659.898 815.12C661.284 814.32 662.13 814.986 662.38 815.419L666.38 822.347" stroke="white" class="vMaaECcN_36"></path>
<path d="M663.38 817.151C663.38 817.151 659.139 821.139 658.934 821.45C658.729 821.761 658.468 822.643 659.068 823.682V823.682C659.84 825.019 661.663 824.584 662.978 823.774C663.175 823.652 663.364 823.531 663.532 823.414C664.509 822.738 665.88 821.481 665.88 821.481" stroke="white" class="vMaaECcN_37"></path>
<path d="M646.908 822.62L654.439 828.664L653.403 818.87" stroke="white" class="vMaaECcN_38"></path>
<path d="M639.431 828.669C639.902 827.819 641.192 825.92 642.578 825.12C643.963 824.32 644.81 824.986 645.06 825.419L649.06 832.347" stroke="white" class="vMaaECcN_39"></path>
<path d="M646.06 827.151C646.06 827.151 641.819 831.139 641.614 831.45C641.408 831.761 641.148 832.643 641.748 833.682V833.682C642.52 835.019 644.343 834.584 645.657 833.774C645.855 833.652 646.043 833.531 646.212 833.414C647.188 832.738 648.56 831.481 648.56 831.481" stroke="white" class="vMaaECcN_40"></path>
<path d="M631.283 823.558L637.783 834.816C638.283 835.682 638.591 837.814 635.819 839.414C633.048 841.014 631.311 838.938 630.788 837.7" stroke="white" class="vMaaECcN_41"></path>
<path d="M271.508 835.761C273.009 833.163 267.379 829.913 265.879 832.511C264.379 835.109 270.509 837.493 269.009 840.091C268.509 840.957 266.893 841.756 265.16 840.756C263.428 839.756 261.946 838.323 262.946 836.591" stroke="white" class="vMaaECcN_42"></path>
<path d="M262.723 830.977C264.223 828.379 258.594 825.129 257.094 827.727C255.594 830.325 261.723 832.709 260.223 835.307C259.723 836.173 258.107 836.972 256.375 835.972C254.643 834.972 253.161 833.539 254.161 831.807" stroke="white" class="vMaaECcN_43"></path>
<path d="M246.568 823.959L252.63 827.459C253.297 826.305 254.024 823.645 251.599 822.245C248.568 820.495 246.635 822.843 245.885 824.142C245.135 825.441 243.385 828.472 246.849 830.472C248.581 831.472 250.38 831.356 251.13 830.057" stroke="white" class="vMaaECcN_44"></path>
<path d="M239.475 815.245L234.725 823.472" stroke="white" class="vMaaECcN_45"></path>
<path d="M237.225 819.142C237.975 817.843 240.081 815.595 242.506 816.995C244.931 818.395 244.354 819.794 243.854 820.66" stroke="white" class="vMaaECcN_46"></path>
<path d="M223.466 816.972L227.216 810.477M227.216 810.477L231.466 803.116L237.528 806.616C238.311 807.26 239.527 809.155 238.127 811.58C236.727 814.005 233.734 813.855 232.412 813.477L227.216 810.477Z" stroke="white" class="vMaaECcN_47"></path>
<path d="M214.949 807.725L216.074 805.776C217.04 804.102 219.181 803.529 220.855 804.495C222.768 805.6 223.424 808.046 222.319 809.959L221.444 811.475C220.409 813.268 218.115 813.883 216.322 812.847C214.528 811.812 213.913 809.518 214.949 807.725Z" stroke="white" class="vMaaECcN_48"></path>
<path d="M228.069 800L219.569 814.722" stroke="white" class="vMaaECcN_49"></path>
<path d="M209.164 797.745L204.414 805.972" stroke="white" class="vMaaECcN_50"></path>
<path d="M206.914 801.642C207.664 800.343 209.77 798.095 212.195 799.495C214.62 800.895 214.043 802.294 213.543 803.16" stroke="white" class="vMaaECcN_51"></path>
<path d="M196.762 797.225L197.887 795.276C198.854 793.602 200.995 793.029 202.669 793.995C204.582 795.1 205.237 797.546 204.133 799.459L203.258 800.975C202.222 802.768 199.929 803.383 198.135 802.347C196.341 801.312 195.727 799.018 196.762 797.225Z" stroke="white" class="vMaaECcN_52"></path>
<path d="M186.25 776.433L181.964 791.856L191.361 784.58L190.191 796.606L201.405 785.183" stroke="white" class="vMaaECcN_53"></path>
<path d="M647.934 67.3887L639.434 82.1111" stroke="white" class="vMaaECcN_54"></path>
<path d="M659.809 74.8218L670.201 80.8218" stroke="white" class="vMaaECcN_55"></path>
<path d="M664.755 78.2546L656.755 92.111" stroke="white" class="vMaaECcN_56"></path>
<path d="M643.934 74.3169L652.595 79.3169" stroke="white" class="vMaaECcN_57"></path>
<path d="M656.595 72.3887L648.095 87.1111" stroke="white" class="vMaaECcN_58"></path>
<path d="M688.637 90.8887L680.637 104.745L687.566 108.745" stroke="white" class="vMaaECcN_59"></path>
<path d="M664.549 96.6111L673.049 81.8887" stroke="white" class="vMaaECcN_60"></path>
<path d="M673.049 81.8887L672.609 95.1303L684.307 88.3887" stroke="white" class="vMaaECcN_61"></path>
<path d="M684.307 88.3887L675.807 103.111" stroke="white" class="vMaaECcN_62"></path>
<path d="M880.568 458.432C881.235 457.765 882.568 455.832 882.568 453.432C882.568 451.032 881.235 449.765 880.568 449.432C879.767 449.031 876.859 449.141 876.068 449.932C875.068 450.932 874.79 452.432 874.568 453.432C874.235 454.932 873.168 458.032 871.568 458.432C869.568 458.932 868.068 457.932 867.568 457.432C867.068 456.932 866.568 456.432 866.568 453.432C866.568 451.032 867.901 449.099 868.568 448.432" stroke="white" class="vMaaECcN_63"></path>
<path d="M880.568 472.432C881.235 471.765 882.568 469.832 882.568 467.432C882.568 465.032 881.235 463.765 880.568 463.432C879.767 463.031 876.859 463.141 876.068 463.932C875.068 464.932 874.79 466.432 874.568 467.432C874.235 468.932 873.168 472.032 871.568 472.432C869.568 472.932 868.068 471.932 867.568 471.432C867.068 470.932 866.568 470.432 866.568 467.432C866.568 465.032 867.901 463.099 868.568 462.432" stroke="white" class="vMaaECcN_64"></path>
<path d="M880.068 444.432C880.735 443.932 882.568 442.832 882.568 440.432C882.568 438.032 881.235 436.932 880.568 436.432C880.235 436.099 879.168 435.432 877.568 435.432C875.968 435.432 872.235 435.432 870.568 435.432C869.735 435.432 868.201 436.299 867.568 436.932C867.068 437.432 866.568 438.432 866.568 439.932C866.568 441.432 867.735 443.599 868.568 444.432" stroke="white" class="vMaaECcN_65"></path>
<path d="M25.5 432.5C25 431.667 24 429.6 24 428C24 426.4 25 426 25.5 426H33.5" stroke="white" class="vMaaECcN_66"></path>
<path d="M27.4211 426.206C27.4211 426.206 28.7545 431.872 28.9211 432.206C29.0878 432.539 29.7211 433.206 30.9211 433.206V433.206C32.4651 433.206 32.9993 431.409 32.9554 429.865C32.9488 429.634 32.9379 429.41 32.9211 429.206C32.8238 428.022 32.4211 426.206 32.4211 426.206" stroke="white" class="vMaaECcN_67"></path>
<path d="M23.5 448.5H33" stroke="white" class="vMaaECcN_68"></path>
<path d="M26 448.5C25.1667 448 23.5 446.7 23.5 445.5C23.5 444 24.5 442.5 26 442.5C27.2 442.5 31.1667 442.5 33 442.5" stroke="white" class="vMaaECcN_69"></path>
<path d="M26 442.5C25.1667 442 23.5 440.7 23.5 439.5C23.5 438 24.5 436.5 26 436.5C27.2 436.5 31.1667 436.5 33 436.5" stroke="white" class="vMaaECcN_70"></path>
<path d="M23.5 452H35.5C36.3333 452.167 38 453.1 38 455.5C38 458.5 36 458.5 35.5 458.5" stroke="white" class="vMaaECcN_71"></path>
<path transform="rotate(-90 28 455.5)" stroke="white" d="M24.5,455.5A3.5,3.5 0,1,1 31.5,455.5A3.5,3.5 0,1,1 24.5,455.5" class="vMaaECcN_72"></path>
<path d="M17 464.5L19 464.5" stroke="white" class="vMaaECcN_73"></path>
<path d="M24 467.5V464.5H33" stroke="white" class="vMaaECcN_74"></path>
<path d="M17 469.5V478H33" stroke="white" class="vMaaECcN_75"></path>
<path d="M24.5 478V471" stroke="white" class="vMaaECcN_76"></path>
<path d="M257.831 86.2894L250.081 72.866L255.277 69.866C257.009 68.866 259.991 70.031 260.741 71.3301L264.741 78.2583C265.941 80.3367 264.099 82.4784 263.027 83.2894L257.831 86.2894Z" stroke="white" class="vMaaECcN_77"></path>
<path d="M236.841 79.9331L255.05 88.4725" stroke="white" class="vMaaECcN_78"></path>
<path d="M246.367 74.4331L244.658 94.4725" stroke="white" class="vMaaECcN_79"></path>
<path d="M226.935 97.7764L232.997 94.2764C232.331 93.1217 230.391 91.1623 227.966 92.5623C224.935 94.3123 226.002 97.1603 226.752 98.4594C227.502 99.7584 229.252 102.789 232.716 100.789C234.448 99.7895 235.247 98.1735 234.497 96.8744" stroke="white" class="vMaaECcN_80"></path>
<path d="M224.596 101.725L223.471 99.7762C222.505 98.1022 220.364 97.5286 218.69 98.4951C216.777 99.5997 216.121 102.046 217.226 103.959L218.101 105.475C219.137 107.268 221.43 107.883 223.224 106.847C225.017 105.812 225.632 103.518 224.596 101.725Z" stroke="white" class="vMaaECcN_81"></path>
<path d="M211.476 94L219.976 108.722" stroke="white" class="vMaaECcN_82"></path>
<path d="M207.459 111.042L206.334 109.093C205.367 107.419 205.941 105.279 207.615 104.312C209.528 103.208 211.974 103.863 213.079 105.776L213.954 107.292C214.989 109.085 214.375 111.379 212.581 112.414C210.788 113.45 208.494 112.835 207.459 111.042Z" stroke="white" class="vMaaECcN_83"></path>
<path d="M198.182 116.975L197.057 115.026C196.091 113.352 196.664 111.212 198.338 110.245C200.252 109.141 202.698 109.796 203.803 111.709L204.678 113.225C205.713 115.018 205.099 117.312 203.305 118.347C201.511 119.383 199.218 118.768 198.182 116.975Z" stroke="white" class="vMaaECcN_84"></path>
<path d="M198.053 101.75L206.553 116.472" stroke="white" class="vMaaECcN_85"></path>
<path d="M187.5 127.473L184.446 110.183L198.325 121.223" stroke="white" class="vMaaECcN_86"></path>
<path d="M186.482 121.709L191.245 118.959" stroke="white" class="vMaaECcN_87"></path>
<style data-made-with="vivus-instant">.vMaaECcN_0{stroke-dasharray:2813 2815;stroke-dashoffset:2814;animation:vMaaECcN_draw 2000ms linear 0ms forwards;}.vMaaECcN_1{stroke-dasharray:2498 2500;stroke-dashoffset:2499;animation:vMaaECcN_draw 2000ms linear 11ms forwards;}.vMaaECcN_2{stroke-dasharray:1242 1244;stroke-dashoffset:1243;animation:vMaaECcN_draw 2000ms linear 22ms forwards;}.vMaaECcN_3{stroke-dasharray:250 252;stroke-dashoffset:251;animation:vMaaECcN_draw 2000ms linear 34ms forwards;}.vMaaECcN_4{stroke-dasharray:250 252;stroke-dashoffset:251;animation:vMaaECcN_draw 2000ms linear 45ms forwards;}.vMaaECcN_5{stroke-dasharray:250 252;stroke-dashoffset:251;animation:vMaaECcN_draw 2000ms linear 57ms forwards;}.vMaaECcN_6{stroke-dasharray:251 253;stroke-dashoffset:252;animation:vMaaECcN_draw 2000ms linear 68ms forwards;}.vMaaECcN_7{stroke-dasharray:251 253;stroke-dashoffset:252;animation:vMaaECcN_draw 2000ms linear 80ms forwards;}.vMaaECcN_8{stroke-dasharray:250 252;stroke-dashoffset:251;animation:vMaaECcN_draw 2000ms linear 91ms forwards;}.vMaaECcN_9{stroke-dasharray:595 597;stroke-dashoffset:596;animation:vMaaECcN_draw 2000ms linear 103ms forwards;}.vMaaECcN_10{stroke-dasharray:141 143;stroke-dashoffset:142;animation:vMaaECcN_draw 2000ms linear 114ms forwards;}.vMaaECcN_11{stroke-dasharray:456 458;stroke-dashoffset:457;animation:vMaaECcN_draw 2000ms linear 126ms forwards;}.vMaaECcN_12{stroke-dasharray:33 35;stroke-dashoffset:34;animation:vMaaECcN_draw 2000ms linear 137ms forwards;}.vMaaECcN_13{stroke-dasharray:185 187;stroke-dashoffset:186;animation:vMaaECcN_draw 2000ms linear 149ms forwards;}.vMaaECcN_14{stroke-dasharray:37 39;stroke-dashoffset:38;animation:vMaaECcN_draw 2000ms linear 160ms forwards;}.vMaaECcN_15{stroke-dasharray:293 295;stroke-dashoffset:294;animation:vMaaECcN_draw 2000ms linear 172ms forwards;}.vMaaECcN_16{stroke-dasharray:476 478;stroke-dashoffset:477;animation:vMaaECcN_draw 2000ms linear 183ms forwards;}.vMaaECcN_17{stroke-dasharray:109 111;stroke-dashoffset:110;animation:vMaaECcN_draw 2000ms linear 195ms forwards;}.vMaaECcN_18{stroke-dasharray:147 149;stroke-dashoffset:148;animation:vMaaECcN_draw 2000ms linear 206ms forwards;}.vMaaECcN_19{stroke-dasharray:437 439;stroke-dashoffset:438;animation:vMaaECcN_draw 2000ms linear 218ms forwards;}.vMaaECcN_20{stroke-dasharray:69 71;stroke-dashoffset:70;animation:vMaaECcN_draw 2000ms linear 229ms forwards;}.vMaaECcN_21{stroke-dasharray:69 71;stroke-dashoffset:70;animation:vMaaECcN_draw 2000ms linear 241ms forwards;}.vMaaECcN_22{stroke-dasharray:137 139;stroke-dashoffset:138;animation:vMaaECcN_draw 2000ms linear 252ms forwards;}.vMaaECcN_23{stroke-dasharray:672 674;stroke-dashoffset:673;animation:vMaaECcN_draw 2000ms linear 264ms forwards;}.vMaaECcN_24{stroke-dasharray:53 55;stroke-dashoffset:54;animation:vMaaECcN_draw 2000ms linear 275ms forwards;}.vMaaECcN_25{stroke-dasharray:475 477;stroke-dashoffset:476;animation:vMaaECcN_draw 2000ms linear 287ms forwards;}.vMaaECcN_26{stroke-dasharray:247 249;stroke-dashoffset:248;animation:vMaaECcN_draw 2000ms linear 298ms forwards;}.vMaaECcN_27{stroke-dasharray:6 8;stroke-dashoffset:7;animation:vMaaECcN_draw 2000ms linear 310ms forwards;}.vMaaECcN_28{stroke-dasharray:17 19;stroke-dashoffset:18;animation:vMaaECcN_draw 2000ms linear 321ms forwards;}.vMaaECcN_29{stroke-dasharray:15 17;stroke-dashoffset:16;animation:vMaaECcN_draw 2000ms linear 333ms forwards;}.vMaaECcN_30{stroke-dasharray:27 29;stroke-dashoffset:28;animation:vMaaECcN_draw 2000ms linear 344ms forwards;}.vMaaECcN_31{stroke-dasharray:2 4;stroke-dashoffset:3;animation:vMaaECcN_draw 2000ms linear 356ms forwards;}.vMaaECcN_32{stroke-dasharray:13 15;stroke-dashoffset:14;animation:vMaaECcN_draw 2000ms linear 367ms forwards;}.vMaaECcN_33{stroke-dasharray:19 21;stroke-dashoffset:20;animation:vMaaECcN_draw 2000ms linear 379ms forwards;}.vMaaECcN_34{stroke-dasharray:22 24;stroke-dashoffset:23;animation:vMaaECcN_draw 2000ms linear 390ms forwards;}.vMaaECcN_35{stroke-dasharray:40 42;stroke-dashoffset:41;animation:vMaaECcN_draw 2000ms linear 402ms forwards;}.vMaaECcN_36{stroke-dasharray:16 18;stroke-dashoffset:17;animation:vMaaECcN_draw 2000ms linear 413ms forwards;}.vMaaECcN_37{stroke-dasharray:17 19;stroke-dashoffset:18;animation:vMaaECcN_draw 2000ms linear 425ms forwards;}.vMaaECcN_38{stroke-dasharray:20 22;stroke-dashoffset:21;animation:vMaaECcN_draw 2000ms linear 436ms forwards;}.vMaaECcN_39{stroke-dasharray:16 18;stroke-dashoffset:17;animation:vMaaECcN_draw 2000ms linear 448ms forwards;}.vMaaECcN_40{stroke-dasharray:17 19;stroke-dashoffset:18;animation:vMaaECcN_draw 2000ms linear 459ms forwards;}.vMaaECcN_41{stroke-dasharray:25 27;stroke-dashoffset:26;animation:vMaaECcN_draw 2000ms linear 471ms forwards;}.vMaaECcN_42{stroke-dasharray:28 30;stroke-dashoffset:29;animation:vMaaECcN_draw 2000ms linear 482ms forwards;}.vMaaECcN_43{stroke-dasharray:28 30;stroke-dashoffset:29;animation:vMaaECcN_draw 2000ms linear 494ms forwards;}.vMaaECcN_44{stroke-dasharray:32 34;stroke-dashoffset:33;animation:vMaaECcN_draw 2000ms linear 505ms forwards;}.vMaaECcN_45{stroke-dasharray:10 12;stroke-dashoffset:11;animation:vMaaECcN_draw 2000ms linear 517ms forwards;}.vMaaECcN_46{stroke-dasharray:11 13;stroke-dashoffset:12;animation:vMaaECcN_draw 2000ms linear 528ms forwards;}.vMaaECcN_47{stroke-dasharray:41 43;stroke-dashoffset:42;animation:vMaaECcN_draw 2000ms linear 540ms forwards;}.vMaaECcN_48{stroke-dasharray:28 30;stroke-dashoffset:29;animation:vMaaECcN_draw 2000ms linear 551ms forwards;}.vMaaECcN_49{stroke-dasharray:17 19;stroke-dashoffset:18;animation:vMaaECcN_draw 2000ms linear 563ms forwards;}.vMaaECcN_50{stroke-dasharray:10 12;stroke-dashoffset:11;animation:vMaaECcN_draw 2000ms linear 574ms forwards;}.vMaaECcN_51{stroke-dasharray:11 13;stroke-dashoffset:12;animation:vMaaECcN_draw 2000ms linear 586ms forwards;}.vMaaECcN_52{stroke-dasharray:28 30;stroke-dashoffset:29;animation:vMaaECcN_draw 2000ms linear 597ms forwards;}.vMaaECcN_53{stroke-dasharray:56 58;stroke-dashoffset:57;animation:vMaaECcN_draw 2000ms linear 609ms forwards;}.vMaaECcN_54{stroke-dasharray:17 19;stroke-dashoffset:18;animation:vMaaECcN_draw 2000ms linear 620ms forwards;}.vMaaECcN_55{stroke-dasharray:12 14;stroke-dashoffset:13;animation:vMaaECcN_draw 2000ms linear 632ms forwards;}.vMaaECcN_56{stroke-dasharray:16 18;stroke-dashoffset:17;animation:vMaaECcN_draw 2000ms linear 643ms forwards;}.vMaaECcN_57{stroke-dasharray:11 13;stroke-dashoffset:12;animation:vMaaECcN_draw 2000ms linear 655ms forwards;}.vMaaECcN_58{stroke-dasharray:17 19;stroke-dashoffset:18;animation:vMaaECcN_draw 2000ms linear 666ms forwards;}.vMaaECcN_59{stroke-dasharray:25 27;stroke-dashoffset:26;animation:vMaaECcN_draw 2000ms linear 678ms forwards;}.vMaaECcN_60{stroke-dasharray:17 19;stroke-dashoffset:18;animation:vMaaECcN_draw 2000ms linear 689ms forwards;}.vMaaECcN_61{stroke-dasharray:27 29;stroke-dashoffset:28;animation:vMaaECcN_draw 2000ms linear 701ms forwards;}.vMaaECcN_62{stroke-dasharray:17 19;stroke-dashoffset:18;animation:vMaaECcN_draw 2000ms linear 712ms forwards;}.vMaaECcN_63{stroke-dasharray:39 41;stroke-dashoffset:40;animation:vMaaECcN_draw 2000ms linear 724ms forwards;}.vMaaECcN_64{stroke-dasharray:39 41;stroke-dashoffset:40;animation:vMaaECcN_draw 2000ms linear 735ms forwards;}.vMaaECcN_65{stroke-dasharray:32 34;stroke-dashoffset:33;animation:vMaaECcN_draw 2000ms linear 747ms forwards;}.vMaaECcN_66{stroke-dasharray:16 18;stroke-dashoffset:17;animation:vMaaECcN_draw 2000ms linear 758ms forwards;}.vMaaECcN_67{stroke-dasharray:17 19;stroke-dashoffset:18;animation:vMaaECcN_draw 2000ms linear 770ms forwards;}.vMaaECcN_68{stroke-dasharray:10 12;stroke-dashoffset:11;animation:vMaaECcN_draw 2000ms linear 781ms forwards;}.vMaaECcN_69{stroke-dasharray:16 18;stroke-dashoffset:17;animation:vMaaECcN_draw 2000ms linear 793ms forwards;}.vMaaECcN_70{stroke-dasharray:16 18;stroke-dashoffset:17;animation:vMaaECcN_draw 2000ms linear 804ms forwards;}.vMaaECcN_71{stroke-dasharray:22 24;stroke-dashoffset:23;animation:vMaaECcN_draw 2000ms linear 816ms forwards;}.vMaaECcN_72{stroke-dasharray:23 25;stroke-dashoffset:24;animation:vMaaECcN_draw 2000ms linear 827ms forwards;}.vMaaECcN_73{stroke-dasharray:2 4;stroke-dashoffset:3;animation:vMaaECcN_draw 2000ms linear 839ms forwards;}.vMaaECcN_74{stroke-dasharray:12 14;stroke-dashoffset:13;animation:vMaaECcN_draw 2000ms linear 850ms forwards;}.vMaaECcN_75{stroke-dasharray:25 27;stroke-dashoffset:26;animation:vMaaECcN_draw 2000ms linear 862ms forwards;}.vMaaECcN_76{stroke-dasharray:7 9;stroke-dashoffset:8;animation:vMaaECcN_draw 2000ms linear 873ms forwards;}.vMaaECcN_77{stroke-dasharray:48 50;stroke-dashoffset:49;animation:vMaaECcN_draw 2000ms linear 885ms forwards;}.vMaaECcN_78{stroke-dasharray:21 23;stroke-dashoffset:22;animation:vMaaECcN_draw 2000ms linear 896ms forwards;}.vMaaECcN_79{stroke-dasharray:21 23;stroke-dashoffset:22;animation:vMaaECcN_draw 2000ms linear 908ms forwards;}.vMaaECcN_80{stroke-dasharray:32 34;stroke-dashoffset:33;animation:vMaaECcN_draw 2000ms linear 919ms forwards;}.vMaaECcN_81{stroke-dasharray:28 30;stroke-dashoffset:29;animation:vMaaECcN_draw 2000ms linear 931ms forwards;}.vMaaECcN_82{stroke-dasharray:17 19;stroke-dashoffset:18;animation:vMaaECcN_draw 2000ms linear 942ms forwards;}.vMaaECcN_83{stroke-dasharray:28 30;stroke-dashoffset:29;animation:vMaaECcN_draw 2000ms linear 954ms forwards;}.vMaaECcN_84{stroke-dasharray:28 30;stroke-dashoffset:29;animation:vMaaECcN_draw 2000ms linear 965ms forwards;}.vMaaECcN_85{stroke-dasharray:17 19;stroke-dashoffset:18;animation:vMaaECcN_draw 2000ms linear 977ms forwards;}.vMaaECcN_86{stroke-dasharray:36 38;stroke-dashoffset:37;animation:vMaaECcN_draw 2000ms linear 988ms forwards;}.vMaaECcN_87{stroke-dasharray:6 8;stroke-dashoffset:7;animation:vMaaECcN_draw 2000ms linear 999ms forwards;}@keyframes vMaaECcN_draw{100%{stroke-dashoffset:0;}}@keyframes vMaaECcN_fade{0%{stroke-opacity:1;}94.44444444444444%{stroke-opacity:1;}100%{stroke-opacity:0;}}</style></svg>
