<svg width="343" height="343" viewBox="0 0 343 343" fill="none" xmlns="http://www.w3.org/2000/svg" style="">
<path stroke="white" stroke-width="2" d="M1,171.5A170.5,170.5 0,1,1 342,171.5A170.5,170.5 0,1,1 1,171.5" class="dzdlWjKB_0"></path>
<path stroke="white" stroke-width="2" d="M20.05600000000001,171.5A151.444,151.444 0,1,1 322.94399999999996,171.5A151.444,151.444 0,1,1 20.05600000000001,171.5" class="dzdlWjKB_1"></path>
<path stroke="white" stroke-width="2" d="M89,171.5A81.5,81.5 0,1,1 252,171.5A81.5,81.5 0,1,1 89,171.5" class="dzdlWjKB_2"></path>
<path d="M171.5 0V91" stroke="white" stroke-width="2" class="dzdlWjKB_3"></path>
<path d="M171.5 252.722V342.722" stroke="white" stroke-width="2" class="dzdlWjKB_4"></path>
<path d="M320.023 257.25L241.215 211.75" stroke="white" stroke-width="2" class="dzdlWjKB_5"></path>
<path d="M319.913 85.75L241.105 131.25" stroke="white" stroke-width="2" class="dzdlWjKB_6"></path>
<path d="M100 130L22.9768 85.75" stroke="white" stroke-width="2" class="dzdlWjKB_7"></path>
<path d="M100 213L22.8667 257.25" stroke="white" stroke-width="2" class="dzdlWjKB_8"></path>
<path d="M57.0721 150V164.978M48.0002 179.956C40.7426 179.956 38.9762 185.227 39.0002 187.863C39.3362 190.284 41.6066 195.101 48.0002 194.998C54.3937 194.896 56.7121 190.199 57.0721 187.863V179.956M48.0002 179.956H57.0721M48.0002 179.956C45.0002 179.935 39.0002 178.272 39.0002 171.792C39.0002 165.814 48.0002 164.978 48.0002 164.978M57.0721 179.956V164.978M48.0002 164.978C48.0002 164.978 54.0481 164.978 57.0721 164.978M48.0002 164.978C45.6962 164.978 39.0002 163.191 39.0002 157.071C39.0002 151.8 45.0482 150 48.0002 150H66.5761C69.384 150.214 75 151.928 75 157.071C75 163.5 68.016 164.978 66.5761 164.978C65.4241 164.978 59.7601 164.978 57.0721 164.978" stroke="white" stroke-width="2" class="dzdlWjKB_9"></path>
<path d="M73.9999 172.563C73.9999 176.047 70.5852 179.149 65.9999 179.149C61.4146 179.149 58 176.047 58 172.563C58 169.08 61.4146 165.978 65.9999 165.978C70.5852 165.978 73.9999 169.08 73.9999 172.563Z" stroke="white" stroke-width="2" class="dzdlWjKB_10"></path>
<path stroke="white" stroke-width="2" d="M87,269.5A21.5,21.5 0,1,1 130,269.5A21.5,21.5 0,1,1 87,269.5" class="dzdlWjKB_11"></path>
<path d="M88.7 259.24H98.42" stroke="white" stroke-width="2" class="dzdlWjKB_12"></path>
<path d="M92.6599 259.24L100.71 288.94L109.67 265.9" stroke="white" stroke-width="2" class="dzdlWjKB_13"></path>
<path d="M102.65 259.24H113.63" stroke="white" stroke-width="2" class="dzdlWjKB_14"></path>
<path d="M107.6 259.077L116.6 288.867L123.95 267.987M123.95 267.987L124.52 266.367C124.85 265.287 126.356 262.101 126.14 259.437C125.87 256.107 124.084 254.873 123.62 254.487C123.08 254.037 121.37 253.227 120.11 253.947C118.85 254.667 118.31 257.277 118.4 258.087C118.49 258.897 119.297 261.233 120.56 262.497C121.64 263.577 123.18 266.397 123.95 267.987Z" stroke="white" stroke-width="2" class="dzdlWjKB_15"></path>
<path d="M214.527 293.277L211 252H251L247.473 293.277L230.954 298L214.527 293.277Z" stroke="white" stroke-width="2" class="dzdlWjKB_16"></path>
<path d="M227.427 260.595V286.099L217.497 283.359" stroke="white" stroke-width="2" class="dzdlWjKB_17"></path>
<path d="M244.689 262.957L234.944 262.768V275.519L241.998 274.386L240.884 284.776L232.624 286.949" stroke="white" stroke-width="2" class="dzdlWjKB_18"></path>
<path width="43" height="43" stroke="white" stroke-width="2" d="M 93,51 L 128,51 A 4,4,0,0,1,132,55 L 132,90 A 4,4,0,0,1,128,94 L 93,94 A 4,4,0,0,1,89,90 L 89,55 A 4,4,0,0,1,93,51" class="dzdlWjKB_19"></path>
<path d="M97.1802 61.5201L109.78 81.6801" stroke="white" stroke-width="2" class="dzdlWjKB_20"></path>
<path d="M96.8198 81.6799L109.69 61.6099" stroke="white" stroke-width="2" class="dzdlWjKB_21"></path>
<path d="M124.54 59.99V68M124.54 68V76.1452C124.54 78.3171 123.142 80.3345 120.981 80.553C120.687 80.5828 120.4 80.6 120.13 80.6C118.24 80.6 114.64 79.16 114.64 74.39C114.64 69.62 116.8 68 124.54 68Z" stroke="white" stroke-width="2" class="dzdlWjKB_22"></path>
<path d="M272.92 160.132H294.84L292.76 181.167L284.92 183.868L277.16 181.167L276.52 175.52M265 149L268.6 190.253L284.92 195L301.4 190.416L305 149H265Z" stroke="white" stroke-width="2" class="dzdlWjKB_23"></path>
<path d="M293.8 170.117H276.36" stroke="white" stroke-width="2" class="dzdlWjKB_24"></path>
<path d="M215.68 91.4164L212 50H252L248.32 91.4164L231.92 96L215.68 91.4164Z" stroke="white" stroke-width="2" class="dzdlWjKB_25"></path>
<path d="M244.16 61.3772H222.72L224 71.363H240.96L239.68 82.4946L231.84 84.7046L224.4 82.4946L223.6 76.5195" stroke="white" stroke-width="2" class="dzdlWjKB_26"></path>
<path d="M100.938 30.7937L97.4048 24.6742L99.7736 23.3065C100.563 22.8507 101.923 23.3818 102.265 23.974L104.088 27.1325C104.635 28.08 103.795 29.0563 103.307 29.4261L100.938 30.7937Z" stroke="white" stroke-width="0.5" class="dzdlWjKB_27"></path>
<path d="M91.3689 27.896L99.6702 31.789" stroke="white" stroke-width="0.5" class="dzdlWjKB_28"></path>
<path d="M95.7117 25.3885L94.9324 34.5242" stroke="white" stroke-width="0.5" class="dzdlWjKB_29"></path>
<path d="M86.8531 36.0304L89.6167 34.4348C89.3128 33.9084 88.4286 33.0152 87.3231 33.6534C85.9413 34.4512 86.4277 35.7496 86.7696 36.3418C87.1116 36.934 87.9094 38.3159 89.4886 37.4041C90.2782 36.9482 90.6425 36.2115 90.3006 35.6193" stroke="white" stroke-width="0.5" class="dzdlWjKB_30"></path>
<path d="M85.7867 37.8306L85.2739 36.9423C84.8333 36.1791 83.8574 35.9176 83.0942 36.3582C82.2221 36.8618 81.9232 37.977 82.4268 38.8492L82.8257 39.5401C83.2978 40.3578 84.3433 40.638 85.161 40.1659C85.9787 39.6938 86.2588 38.6482 85.7867 37.8306Z" stroke="white" stroke-width="0.5" class="dzdlWjKB_31"></path>
<path d="M79.8054 34.309L83.6804 41.0207" stroke="white" stroke-width="0.5" class="dzdlWjKB_32"></path>
<path d="M77.974 42.078L77.4611 41.1897C77.0205 40.4265 77.282 39.4507 78.0452 39.0101C78.9173 38.5065 80.0326 38.8053 80.5362 39.6775L80.9351 40.3684C81.4071 41.1861 81.127 42.2317 80.3093 42.7038C79.4916 43.1758 78.4461 42.8957 77.974 42.078Z" stroke="white" stroke-width="0.5" class="dzdlWjKB_33"></path>
<path d="M73.745 44.7828L73.2321 43.8945C72.7915 43.1314 73.053 42.1555 73.8162 41.7149C74.6883 41.2113 75.8036 41.5102 76.3072 42.3824L76.7061 43.0733C77.1781 43.8909 76.898 44.9365 76.0803 45.4086C75.2626 45.8807 74.2171 45.6005 73.745 44.7828Z" stroke="white" stroke-width="0.5" class="dzdlWjKB_34"></path>
<path d="M73.6858 37.842L77.5608 44.5538" stroke="white" stroke-width="0.5" class="dzdlWjKB_35"></path>
<path d="M68.8751 49.5685L67.4829 41.6865L73.8102 46.7193" stroke="white" stroke-width="0.5" class="dzdlWjKB_36"></path>
<path d="M68.4109 46.9412L70.5823 45.6875" stroke="white" stroke-width="0.5" class="dzdlWjKB_37"></path>
<path d="M9.66675 158.333C9.33341 157.778 8.66675 156.4 8.66675 155.333C8.66675 154.267 9.33341 154 9.66675 154H15.0001" stroke="white" stroke-width="0.5" class="dzdlWjKB_38"></path>
<path d="M10.9475 154.137C10.9475 154.137 11.8364 157.915 11.9475 158.137C12.0586 158.359 12.4808 158.804 13.2808 158.804V158.804C14.3102 158.804 14.6663 157.606 14.637 156.577C14.6326 156.423 14.6254 156.273 14.6142 156.137C14.5493 155.348 14.2808 154.137 14.2808 154.137" stroke="white" stroke-width="0.5" class="dzdlWjKB_39"></path>
<path d="M8.33325 169H14.6666" stroke="white" stroke-width="0.5" class="dzdlWjKB_40"></path>
<path d="M9.99992 169C9.44436 168.667 8.33325 167.8 8.33325 167C8.33325 166 8.99992 165 9.99992 165C10.7999 165 13.4444 165 14.6666 165" stroke="white" stroke-width="0.5" class="dzdlWjKB_41"></path>
<path d="M9.99992 165C9.44436 164.667 8.33325 163.8 8.33325 163C8.33325 162 8.99992 161 9.99992 161C10.7999 161 13.4444 161 14.6666 161" stroke="white" stroke-width="0.5" class="dzdlWjKB_42"></path>
<path d="M8.33325 171.333H16.3333C16.8888 171.444 17.9999 172.067 17.9999 173.667C17.9999 175.667 16.6666 175.667 16.3333 175.667" stroke="white" stroke-width="0.5" class="dzdlWjKB_43"></path>
<path transform="rotate(-90 11.3334 173.667)" stroke="white" stroke-width="0.5" d="M8.91673,173.667A2.41667,2.41667 0,1,1 13.75007,173.667A2.41667,2.41667 0,1,1 8.91673,173.667" class="dzdlWjKB_44"></path>
<path d="M4 179.667L5.33333 179.667" stroke="white" stroke-width="0.5" class="dzdlWjKB_45"></path>
<path d="M8.66675 181.667V179.667H14.6667" stroke="white" stroke-width="0.5" class="dzdlWjKB_46"></path>
<path d="M4 183V188.667H14.6667" stroke="white" stroke-width="0.5" class="dzdlWjKB_47"></path>
<path d="M9 188.667V184" stroke="white" stroke-width="0.5" class="dzdlWjKB_48"></path>
<path d="M121.006 327.184C122.065 325.35 118.091 323.056 117.032 324.89C115.974 326.724 120.3 328.407 119.241 330.24C118.888 330.852 117.748 331.416 116.525 330.71C115.302 330.004 114.256 328.993 114.962 327.77" stroke="white" stroke-width="0.5" class="dzdlWjKB_49"></path>
<path d="M114.804 323.808C115.863 321.974 111.89 319.679 110.831 321.513C109.772 323.347 114.099 325.03 113.04 326.864C112.687 327.475 111.546 328.039 110.323 327.333C109.101 326.628 108.055 325.616 108.761 324.393" stroke="white" stroke-width="0.5" class="dzdlWjKB_50"></path>
<path d="M103.401 318.854L107.68 321.324C108.151 320.509 108.664 318.632 106.952 317.644C104.813 316.408 103.448 318.066 102.919 318.983C102.389 319.9 101.154 322.039 103.599 323.451C104.822 324.157 106.092 324.075 106.621 323.158" stroke="white" stroke-width="0.5" class="dzdlWjKB_51"></path>
<path d="M98.3938 312.702L95.0409 318.51" stroke="white" stroke-width="0.5" class="dzdlWjKB_52"></path>
<path d="M96.8056 315.453C97.335 314.536 98.8217 312.949 100.533 313.938C102.245 314.926 101.838 315.913 101.485 316.525" stroke="white" stroke-width="0.5" class="dzdlWjKB_53"></path>
<path d="M87.0939 313.922L89.741 309.337M89.741 309.337L92.741 304.141L97.0201 306.611C97.5726 307.066 98.4305 308.404 97.4423 310.115C96.4541 311.827 94.3416 311.721 93.4088 311.454L89.741 309.337Z" stroke="white" stroke-width="0.5" class="dzdlWjKB_54"></path>
<path d="M81.0817 307.394L81.8758 306.018C82.558 304.837 84.069 304.432 85.2507 305.114C86.6011 305.894 87.0638 307.621 86.2842 308.971L85.6665 310.041C84.9355 311.307 83.3166 311.741 82.0506 311.01C80.7845 310.279 80.3507 308.66 81.0817 307.394Z" stroke="white" stroke-width="0.5" class="dzdlWjKB_55"></path>
<path d="M90.3428 301.941L84.3428 312.333" stroke="white" stroke-width="0.5" class="dzdlWjKB_56"></path>
<path d="M76.9978 300.35L73.6449 306.157" stroke="white" stroke-width="0.5" class="dzdlWjKB_57"></path>
<path d="M75.4096 303.101C75.939 302.184 77.4257 300.597 79.1374 301.585C80.8491 302.573 80.4419 303.561 80.089 304.172" stroke="white" stroke-width="0.5" class="dzdlWjKB_58"></path>
<path d="M68.2443 299.982L69.0384 298.607C69.7206 297.425 71.2316 297.02 72.4133 297.702C73.7637 298.482 74.2264 300.209 73.4468 301.559L72.8291 302.629C72.0981 303.895 70.4792 304.329 69.2132 303.598C67.9471 302.867 67.5133 301.248 68.2443 299.982Z" stroke="white" stroke-width="0.5" class="dzdlWjKB_59"></path>
<path d="M60.8235 285.306L57.7982 296.193L64.4314 291.057L63.6056 299.546L71.5214 291.482" stroke="white" stroke-width="0.5" class="dzdlWjKB_60"></path>
<path d="M277.83 292.631L280.71 290.968" stroke="white" stroke-width="0.5" class="dzdlWjKB_61"></path>
<path d="M278.192 289.629L281.82 295.913C281.921 296.087 282.227 296.376 282.646 296.134C283.065 295.892 283.693 295.53 283.955 295.378" stroke="white" stroke-width="0.5" class="dzdlWjKB_62"></path>
<path d="M272.594 295.654L276.978 303.247" stroke="white" stroke-width="0.5" class="dzdlWjKB_63"></path>
<path d="M274.427 294.596C272.96 295.442 273.4 297.05 273.803 297.749C274.22 298.672 275.472 300.276 277.148 299.309C278.823 298.341 278.335 296.528 277.882 295.743C277.476 295.04 275.893 293.749 274.427 294.596Z" stroke="white" stroke-width="0.5" class="dzdlWjKB_64"></path>
<path d="M267.86 293.5L268.464 294.548" stroke="white" stroke-width="0.5" class="dzdlWjKB_65"></path>
<path d="M268.405 298.073L270.238 297.015L273.11 301.989" stroke="white" stroke-width="0.5" class="dzdlWjKB_66"></path>
<path d="M263.541 300.532L264.297 301.841M266.564 305.768L264.297 301.841M264.297 301.841C264.357 301.341 264.687 300.219 265.525 299.735C266.363 299.252 267.549 299.614 267.852 300.138" stroke="white" stroke-width="0.5" class="dzdlWjKB_67"></path>
<path d="M262.877 303.01C262.575 302.486 261.598 302.003 260.55 302.607C259.241 303.363 259.322 304.713 259.625 305.236C259.866 305.655 260.128 306.109 260.229 306.284C260.481 306.72 260.683 307.069 260.683 307.069C261.136 307.855 262.486 307.774 263.271 307.32C264.318 306.716 264.54 305.89 264.237 305.366" stroke="white" stroke-width="0.5" class="dzdlWjKB_68"></path>
<path d="M255.111 302.257C254.56 302.109 253.145 301.995 251.888 302.721C250.317 303.628 250.136 305.129 250.59 305.914C251.497 307.485 252.474 307.968 254.307 306.91C256.14 305.852 257.681 306.708 258.286 307.755C259.041 309.064 257.815 310.47 256.987 310.948C256.159 311.426 254.742 311.896 253.503 311.564" stroke="white" stroke-width="0.5" class="dzdlWjKB_69"></path>
<path d="M246.342 311.858C246.627 311.344 247.407 310.196 248.245 309.712C249.082 309.228 249.594 309.631 249.745 309.893L252.164 314.082" stroke="white" stroke-width="0.5" class="dzdlWjKB_70"></path>
<path d="M250.35 310.94C250.35 310.94 247.786 313.351 247.662 313.54C247.538 313.728 247.38 314.261 247.743 314.889V314.889C248.21 315.698 249.312 315.434 250.107 314.945C250.226 314.871 250.34 314.798 250.442 314.727C251.032 314.318 251.862 313.558 251.862 313.558" stroke="white" stroke-width="0.5" class="dzdlWjKB_71"></path>
<path d="M240.39 314.247L244.944 317.902L244.317 311.98" stroke="white" stroke-width="0.5" class="dzdlWjKB_72"></path>
<path d="M235.869 317.905C236.154 317.391 236.934 316.242 237.772 315.759C238.61 315.275 239.121 315.678 239.272 315.939L241.691 320.129" stroke="white" stroke-width="0.5" class="dzdlWjKB_73"></path>
<path d="M239.877 316.987C239.877 316.987 237.313 319.398 237.189 319.586C237.065 319.774 236.907 320.307 237.27 320.936V320.936C237.737 321.744 238.839 321.481 239.634 320.991C239.753 320.918 239.867 320.844 239.969 320.774C240.559 320.365 241.389 319.605 241.389 319.605" stroke="white" stroke-width="0.5" class="dzdlWjKB_74"></path>
<path d="M230.943 314.814L234.873 321.621C235.175 322.145 235.361 323.434 233.685 324.402C232.01 325.369 230.959 324.114 230.643 323.365" stroke="white" stroke-width="0.5" class="dzdlWjKB_75"></path>
<path d="M335.786 174.148C336.109 173.825 336.755 172.888 336.755 171.725C336.755 170.561 336.109 169.947 335.786 169.786C335.398 169.592 333.988 169.645 333.605 170.028C333.12 170.513 332.985 171.24 332.878 171.725C332.716 172.452 332.199 173.954 331.423 174.148C330.454 174.391 329.727 173.906 329.485 173.663C329.242 173.421 329 173.179 329 171.725C329 170.561 329.646 169.624 329.969 169.301" stroke="white" stroke-width="0.5" class="dzdlWjKB_76"></path>
<path d="M335.786 180.934C336.109 180.611 336.755 179.674 336.755 178.51C336.755 177.347 336.109 176.733 335.786 176.572C335.398 176.378 333.988 176.431 333.605 176.814C333.12 177.299 332.985 178.026 332.878 178.51C332.716 179.237 332.199 180.74 331.423 180.934C330.454 181.176 329.727 180.692 329.485 180.449C329.242 180.207 329 179.965 329 178.51C329 177.347 329.646 176.41 329.969 176.087" stroke="white" stroke-width="0.5" class="dzdlWjKB_77"></path>
<path d="M335.543 167.362C335.867 167.12 336.755 166.587 336.755 165.424C336.755 164.26 336.109 163.727 335.786 163.485C335.624 163.323 335.107 163 334.332 163C333.556 163 331.747 163 330.939 163C330.535 163 329.791 163.421 329.485 163.727C329.242 163.969 329 164.454 329 165.181C329 165.908 329.565 166.958 329.969 167.362" stroke="white" stroke-width="0.5" class="dzdlWjKB_78"></path>
<path d="M250 26L246 32.9282" stroke="white" stroke-width="0.5" class="dzdlWjKB_79"></path>
<path d="M255.173 29.2583L259.708 31.8765" stroke="white" stroke-width="0.5" class="dzdlWjKB_80"></path>
<path d="M257.323 30.7712L253.558 37.2919" stroke="white" stroke-width="0.5" class="dzdlWjKB_81"></path>
<path d="M248.118 29.2604L251.897 31.4422" stroke="white" stroke-width="0.5" class="dzdlWjKB_82"></path>
<path d="M253.779 28.182L249.779 35.1102" stroke="white" stroke-width="0.5" class="dzdlWjKB_83"></path>
<path d="M267.761 36.2546L263.997 42.7753L267.02 44.5208" stroke="white" stroke-width="0.5" class="dzdlWjKB_84"></path>
<path d="M256.959 39.2556L260.959 32.3274" stroke="white" stroke-width="0.5" class="dzdlWjKB_85"></path>
<path d="M260.959 32.3274L260.567 38.452L265.872 35.1638" stroke="white" stroke-width="0.5" class="dzdlWjKB_86"></path>
<path d="M265.872 35.1636L261.872 42.0918" stroke="white" stroke-width="0.5" class="dzdlWjKB_87"></path>
<style data-made-with="vivus-instant">.dzdlWjKB_0{stroke-dasharray:1072 1074;stroke-dashoffset:1073;animation:dzdlWjKB_draw 2000ms linear 0ms forwards;}.dzdlWjKB_1{stroke-dasharray:952 954;stroke-dashoffset:953;animation:dzdlWjKB_draw 2000ms linear 11ms forwards;}.dzdlWjKB_2{stroke-dasharray:513 515;stroke-dashoffset:514;animation:dzdlWjKB_draw 2000ms linear 22ms forwards;}.dzdlWjKB_3{stroke-dasharray:91 93;stroke-dashoffset:92;animation:dzdlWjKB_draw 2000ms linear 34ms forwards;}.dzdlWjKB_4{stroke-dasharray:90 92;stroke-dashoffset:91;animation:dzdlWjKB_draw 2000ms linear 45ms forwards;}.dzdlWjKB_5{stroke-dasharray:91 93;stroke-dashoffset:92;animation:dzdlWjKB_draw 2000ms linear 57ms forwards;}.dzdlWjKB_6{stroke-dasharray:91 93;stroke-dashoffset:92;animation:dzdlWjKB_draw 2000ms linear 68ms forwards;}.dzdlWjKB_7{stroke-dasharray:89 91;stroke-dashoffset:90;animation:dzdlWjKB_draw 2000ms linear 80ms forwards;}.dzdlWjKB_8{stroke-dasharray:89 91;stroke-dashoffset:90;animation:dzdlWjKB_draw 2000ms linear 91ms forwards;}.dzdlWjKB_9{stroke-dasharray:200 202;stroke-dashoffset:201;animation:dzdlWjKB_draw 2000ms linear 103ms forwards;}.dzdlWjKB_10{stroke-dasharray:46 48;stroke-dashoffset:47;animation:dzdlWjKB_draw 2000ms linear 114ms forwards;}.dzdlWjKB_11{stroke-dasharray:136 138;stroke-dashoffset:137;animation:dzdlWjKB_draw 2000ms linear 126ms forwards;}.dzdlWjKB_12{stroke-dasharray:10 12;stroke-dashoffset:11;animation:dzdlWjKB_draw 2000ms linear 137ms forwards;}.dzdlWjKB_13{stroke-dasharray:56 58;stroke-dashoffset:57;animation:dzdlWjKB_draw 2000ms linear 149ms forwards;}.dzdlWjKB_14{stroke-dasharray:11 13;stroke-dashoffset:12;animation:dzdlWjKB_draw 2000ms linear 160ms forwards;}.dzdlWjKB_15{stroke-dasharray:88 90;stroke-dashoffset:89;animation:dzdlWjKB_draw 2000ms linear 172ms forwards;}.dzdlWjKB_16{stroke-dasharray:158 160;stroke-dashoffset:159;animation:dzdlWjKB_draw 2000ms linear 183ms forwards;}.dzdlWjKB_17{stroke-dasharray:36 38;stroke-dashoffset:37;animation:dzdlWjKB_draw 2000ms linear 195ms forwards;}.dzdlWjKB_18{stroke-dasharray:49 51;stroke-dashoffset:50;animation:dzdlWjKB_draw 2000ms linear 206ms forwards;}.dzdlWjKB_19{stroke-dasharray:166 168;stroke-dashoffset:167;animation:dzdlWjKB_draw 2000ms linear 218ms forwards;}.dzdlWjKB_20{stroke-dasharray:24 26;stroke-dashoffset:25;animation:dzdlWjKB_draw 2000ms linear 229ms forwards;}.dzdlWjKB_21{stroke-dasharray:24 26;stroke-dashoffset:25;animation:dzdlWjKB_draw 2000ms linear 241ms forwards;}.dzdlWjKB_22{stroke-dasharray:47 49;stroke-dashoffset:48;animation:dzdlWjKB_draw 2000ms linear 252ms forwards;}.dzdlWjKB_23{stroke-dasharray:223 225;stroke-dashoffset:224;animation:dzdlWjKB_draw 2000ms linear 264ms forwards;}.dzdlWjKB_24{stroke-dasharray:18 20;stroke-dashoffset:19;animation:dzdlWjKB_draw 2000ms linear 275ms forwards;}.dzdlWjKB_25{stroke-dasharray:158 160;stroke-dashoffset:159;animation:dzdlWjKB_draw 2000ms linear 287ms forwards;}.dzdlWjKB_26{stroke-dasharray:82 84;stroke-dashoffset:83;animation:dzdlWjKB_draw 2000ms linear 298ms forwards;}.dzdlWjKB_27{stroke-dasharray:22 24;stroke-dashoffset:23;animation:dzdlWjKB_draw 2000ms linear 310ms forwards;}.dzdlWjKB_28{stroke-dasharray:10 12;stroke-dashoffset:11;animation:dzdlWjKB_draw 2000ms linear 321ms forwards;}.dzdlWjKB_29{stroke-dasharray:10 12;stroke-dashoffset:11;animation:dzdlWjKB_draw 2000ms linear 333ms forwards;}.dzdlWjKB_30{stroke-dasharray:15 17;stroke-dashoffset:16;animation:dzdlWjKB_draw 2000ms linear 344ms forwards;}.dzdlWjKB_31{stroke-dasharray:13 15;stroke-dashoffset:14;animation:dzdlWjKB_draw 2000ms linear 356ms forwards;}.dzdlWjKB_32{stroke-dasharray:8 10;stroke-dashoffset:9;animation:dzdlWjKB_draw 2000ms linear 367ms forwards;}.dzdlWjKB_33{stroke-dasharray:13 15;stroke-dashoffset:14;animation:dzdlWjKB_draw 2000ms linear 379ms forwards;}.dzdlWjKB_34{stroke-dasharray:13 15;stroke-dashoffset:14;animation:dzdlWjKB_draw 2000ms linear 390ms forwards;}.dzdlWjKB_35{stroke-dasharray:8 10;stroke-dashoffset:9;animation:dzdlWjKB_draw 2000ms linear 402ms forwards;}.dzdlWjKB_36{stroke-dasharray:17 19;stroke-dashoffset:18;animation:dzdlWjKB_draw 2000ms linear 413ms forwards;}.dzdlWjKB_37{stroke-dasharray:3 5;stroke-dashoffset:4;animation:dzdlWjKB_draw 2000ms linear 425ms forwards;}.dzdlWjKB_38{stroke-dasharray:11 13;stroke-dashoffset:12;animation:dzdlWjKB_draw 2000ms linear 436ms forwards;}.dzdlWjKB_39{stroke-dasharray:12 14;stroke-dashoffset:13;animation:dzdlWjKB_draw 2000ms linear 448ms forwards;}.dzdlWjKB_40{stroke-dasharray:7 9;stroke-dashoffset:8;animation:dzdlWjKB_draw 2000ms linear 459ms forwards;}.dzdlWjKB_41{stroke-dasharray:11 13;stroke-dashoffset:12;animation:dzdlWjKB_draw 2000ms linear 471ms forwards;}.dzdlWjKB_42{stroke-dasharray:11 13;stroke-dashoffset:12;animation:dzdlWjKB_draw 2000ms linear 482ms forwards;}.dzdlWjKB_43{stroke-dasharray:15 17;stroke-dashoffset:16;animation:dzdlWjKB_draw 2000ms linear 494ms forwards;}.dzdlWjKB_44{stroke-dasharray:16 18;stroke-dashoffset:17;animation:dzdlWjKB_draw 2000ms linear 505ms forwards;}.dzdlWjKB_45{stroke-dasharray:2 4;stroke-dashoffset:3;animation:dzdlWjKB_draw 2000ms linear 517ms forwards;}.dzdlWjKB_46{stroke-dasharray:8 10;stroke-dashoffset:9;animation:dzdlWjKB_draw 2000ms linear 528ms forwards;}.dzdlWjKB_47{stroke-dasharray:17 19;stroke-dashoffset:18;animation:dzdlWjKB_draw 2000ms linear 540ms forwards;}.dzdlWjKB_48{stroke-dasharray:5 7;stroke-dashoffset:6;animation:dzdlWjKB_draw 2000ms linear 551ms forwards;}.dzdlWjKB_49{stroke-dasharray:20 22;stroke-dashoffset:21;animation:dzdlWjKB_draw 2000ms linear 563ms forwards;}.dzdlWjKB_50{stroke-dasharray:20 22;stroke-dashoffset:21;animation:dzdlWjKB_draw 2000ms linear 574ms forwards;}.dzdlWjKB_51{stroke-dasharray:23 25;stroke-dashoffset:24;animation:dzdlWjKB_draw 2000ms linear 586ms forwards;}.dzdlWjKB_52{stroke-dasharray:7 9;stroke-dashoffset:8;animation:dzdlWjKB_draw 2000ms linear 597ms forwards;}.dzdlWjKB_53{stroke-dasharray:8 10;stroke-dashoffset:9;animation:dzdlWjKB_draw 2000ms linear 609ms forwards;}.dzdlWjKB_54{stroke-dasharray:29 31;stroke-dashoffset:30;animation:dzdlWjKB_draw 2000ms linear 620ms forwards;}.dzdlWjKB_55{stroke-dasharray:20 22;stroke-dashoffset:21;animation:dzdlWjKB_draw 2000ms linear 632ms forwards;}.dzdlWjKB_56{stroke-dasharray:12 14;stroke-dashoffset:13;animation:dzdlWjKB_draw 2000ms linear 643ms forwards;}.dzdlWjKB_57{stroke-dasharray:7 9;stroke-dashoffset:8;animation:dzdlWjKB_draw 2000ms linear 655ms forwards;}.dzdlWjKB_58{stroke-dasharray:8 10;stroke-dashoffset:9;animation:dzdlWjKB_draw 2000ms linear 666ms forwards;}.dzdlWjKB_59{stroke-dasharray:20 22;stroke-dashoffset:21;animation:dzdlWjKB_draw 2000ms linear 678ms forwards;}.dzdlWjKB_60{stroke-dasharray:40 42;stroke-dashoffset:41;animation:dzdlWjKB_draw 2000ms linear 689ms forwards;}.dzdlWjKB_61{stroke-dasharray:4 6;stroke-dashoffset:5;animation:dzdlWjKB_draw 2000ms linear 701ms forwards;}.dzdlWjKB_62{stroke-dasharray:10 12;stroke-dashoffset:11;animation:dzdlWjKB_draw 2000ms linear 712ms forwards;}.dzdlWjKB_63{stroke-dasharray:9 11;stroke-dashoffset:10;animation:dzdlWjKB_draw 2000ms linear 724ms forwards;}.dzdlWjKB_64{stroke-dasharray:16 18;stroke-dashoffset:17;animation:dzdlWjKB_draw 2000ms linear 735ms forwards;}.dzdlWjKB_65{stroke-dasharray:2 4;stroke-dashoffset:3;animation:dzdlWjKB_draw 2000ms linear 747ms forwards;}.dzdlWjKB_66{stroke-dasharray:8 10;stroke-dashoffset:9;animation:dzdlWjKB_draw 2000ms linear 758ms forwards;}.dzdlWjKB_67{stroke-dasharray:12 14;stroke-dashoffset:13;animation:dzdlWjKB_draw 2000ms linear 770ms forwards;}.dzdlWjKB_68{stroke-dasharray:14 16;stroke-dashoffset:15;animation:dzdlWjKB_draw 2000ms linear 781ms forwards;}.dzdlWjKB_69{stroke-dasharray:24 26;stroke-dashoffset:25;animation:dzdlWjKB_draw 2000ms linear 793ms forwards;}.dzdlWjKB_70{stroke-dasharray:10 12;stroke-dashoffset:11;animation:dzdlWjKB_draw 2000ms linear 804ms forwards;}.dzdlWjKB_71{stroke-dasharray:11 13;stroke-dashoffset:12;animation:dzdlWjKB_draw 2000ms linear 816ms forwards;}.dzdlWjKB_72{stroke-dasharray:12 14;stroke-dashoffset:13;animation:dzdlWjKB_draw 2000ms linear 827ms forwards;}.dzdlWjKB_73{stroke-dasharray:10 12;stroke-dashoffset:11;animation:dzdlWjKB_draw 2000ms linear 839ms forwards;}.dzdlWjKB_74{stroke-dasharray:11 13;stroke-dashoffset:12;animation:dzdlWjKB_draw 2000ms linear 850ms forwards;}.dzdlWjKB_75{stroke-dasharray:15 17;stroke-dashoffset:16;animation:dzdlWjKB_draw 2000ms linear 862ms forwards;}.dzdlWjKB_76{stroke-dasharray:19 21;stroke-dashoffset:20;animation:dzdlWjKB_draw 2000ms linear 873ms forwards;}.dzdlWjKB_77{stroke-dasharray:19 21;stroke-dashoffset:20;animation:dzdlWjKB_draw 2000ms linear 885ms forwards;}.dzdlWjKB_78{stroke-dasharray:16 18;stroke-dashoffset:17;animation:dzdlWjKB_draw 2000ms linear 896ms forwards;}.dzdlWjKB_79{stroke-dasharray:8 10;stroke-dashoffset:9;animation:dzdlWjKB_draw 2000ms linear 908ms forwards;}.dzdlWjKB_80{stroke-dasharray:6 8;stroke-dashoffset:7;animation:dzdlWjKB_draw 2000ms linear 919ms forwards;}.dzdlWjKB_81{stroke-dasharray:8 10;stroke-dashoffset:9;animation:dzdlWjKB_draw 2000ms linear 931ms forwards;}.dzdlWjKB_82{stroke-dasharray:5 7;stroke-dashoffset:6;animation:dzdlWjKB_draw 2000ms linear 942ms forwards;}.dzdlWjKB_83{stroke-dasharray:8 10;stroke-dashoffset:9;animation:dzdlWjKB_draw 2000ms linear 954ms forwards;}.dzdlWjKB_84{stroke-dasharray:12 14;stroke-dashoffset:13;animation:dzdlWjKB_draw 2000ms linear 965ms forwards;}.dzdlWjKB_85{stroke-dasharray:8 10;stroke-dashoffset:9;animation:dzdlWjKB_draw 2000ms linear 977ms forwards;}.dzdlWjKB_86{stroke-dasharray:13 15;stroke-dashoffset:14;animation:dzdlWjKB_draw 2000ms linear 988ms forwards;}.dzdlWjKB_87{stroke-dasharray:8 10;stroke-dashoffset:9;animation:dzdlWjKB_draw 2000ms linear 999ms forwards;}@keyframes dzdlWjKB_draw{100%{stroke-dashoffset:0;}}@keyframes dzdlWjKB_fade{0%{stroke-opacity:1;}94.44444444444444%{stroke-opacity:1;}100%{stroke-opacity:0;}}</style></svg>
