<svg width="250" height="250" viewBox="0 0 250 250" fill="none" xmlns="http://www.w3.org/2000/svg" style="">
<path stroke="white" stroke-width="5" d="M2.5,125A122.5,122.5 0,1,1 247.5,125A122.5,122.5 0,1,1 2.5,125" class="XnIqrdJx_0"></path>
<path d="M15 68L69 68" stroke="white" stroke-width="5" class="XnIqrdJx_1"></path>
<path d="M37 68L81.7236 233L131.5 105" stroke="white" stroke-width="5" class="XnIqrdJx_2"></path>
<path d="M92.5 68H153.5" stroke="white" stroke-width="5" class="XnIqrdJx_3"></path>
<path d="M120 67.0922L170 232.592L210.832 116.592M210.832 116.592L214 107.592C215.833 101.592 224.2 83.8922 223 69.0922C221.5 50.5922 211.577 43.7396 209 41.5922C206 39.0918 196.5 34.5919 189.5 38.5919C182.5 42.5919 179.5 57.0918 180 61.5918C180.5 66.0918 184.982 79.074 192 86.0918C198 92.0918 206.555 107.759 210.832 116.592Z" stroke="white" stroke-width="5" class="XnIqrdJx_4"></path>
<style data-made-with="vivus-instant">.XnIqrdJx_0{stroke-dasharray:770 772;stroke-dashoffset:771;animation:XnIqrdJx_draw 2000ms linear 0ms forwards;}.XnIqrdJx_1{stroke-dasharray:54 56;stroke-dashoffset:55;animation:XnIqrdJx_draw 2000ms linear 250ms forwards;}.XnIqrdJx_2{stroke-dasharray:309 311;stroke-dashoffset:310;animation:XnIqrdJx_draw 2000ms linear 500ms forwards;}.XnIqrdJx_3{stroke-dasharray:61 63;stroke-dashoffset:62;animation:XnIqrdJx_draw 2000ms linear 750ms forwards;}.XnIqrdJx_4{stroke-dasharray:488 490;stroke-dashoffset:489;animation:XnIqrdJx_draw 2000ms linear 1000ms forwards;}@keyframes XnIqrdJx_draw{100%{stroke-dashoffset:0;}}@keyframes XnIqrdJx_fade{0%{stroke-opacity:1;}94.44444444444444%{stroke-opacity:1;}100%{stroke-opacity:0;}}</style></svg>
