<svg width="250" height="250" viewBox="0 0 250 250" fill="none" xmlns="http://www.w3.org/2000/svg" style="">
<path width="245" height="245" stroke="white" stroke-width="5" d="M 39.5,2.5 L 210.5,2.5 A 37,37,0,0,1,247.5,39.5 L 247.5,210.5 A 37,37,0,0,1,210.5,247.5 L 39.5,247.5 A 37,37,0,0,1,2.5,210.5 L 2.5,39.5 A 37,37,0,0,1,39.5,2.5" class="XZSXUNtT_0"></path>
<path d="M51 64L121 176" stroke="white" stroke-width="5" class="XZSXUNtT_1"></path>
<path d="M49 176L120.5 64.5" stroke="white" stroke-width="5" class="XZSXUNtT_2"></path>
<path d="M203 55.5V100M203 100V165.5C198.333 167 186.9 170 178.5 170C168 170 148 162 148 135.5C148 109 160 100 203 100Z" stroke="white" stroke-width="5" class="XZSXUNtT_3"></path>
<style data-made-with="vivus-instant">.XZSXUNtT_0{stroke-dasharray:917 919;stroke-dashoffset:918;animation:XZSXUNtT_draw 2000ms linear 0ms forwards;}.XZSXUNtT_1{stroke-dasharray:133 135;stroke-dashoffset:134;animation:XZSXUNtT_draw 2000ms linear 333ms forwards;}.XZSXUNtT_2{stroke-dasharray:133 135;stroke-dashoffset:134;animation:XZSXUNtT_draw 2000ms linear 666ms forwards;}.XZSXUNtT_3{stroke-dasharray:263 265;stroke-dashoffset:264;animation:XZSXUNtT_draw 2000ms linear 1000ms forwards;}@keyframes XZSXUNtT_draw{100%{stroke-dashoffset:0;}}@keyframes XZSXUNtT_fade{0%{stroke-opacity:1;}94.44444444444444%{stroke-opacity:1;}100%{stroke-opacity:0;}}</style></svg>
